<?xml version="1.0" encoding="UTF-8" standalone="no"?>
<!DOCTYPE svg PUBLIC "-//W3C//DTD SVG 1.1//EN" "http://www.w3.org/Graphics/SVG/1.1/DTD/svg11.dtd">
<svg width="100%" height="100%" viewBox="0 0 200 90" version="1.1" xmlns="http://www.w3.org/2000/svg" xmlns:xlink="http://www.w3.org/1999/xlink" xml:space="preserve" xmlns:serif="http://www.serif.com/" style="fill-rule:evenodd;clip-rule:evenodd;stroke-linejoin:round;stroke-miterlimit:2;">
    <g id="Karcher" transform="matrix(0.203494,0,0,0.203494,-28.1515,9.62049)">
        <g transform="matrix(1,0,0,1,0.000668472,-29.7945)">
            <path d="M260.21,112.57L230.63,158.51L218.36,158.51L218.36,112.57L180.16,112.57L180.16,235.08L218.36,235.08L218.36,187.22L230.11,187.22L259.87,235.08L306.42,235.08L264.13,170.52L304.16,112.48L260.22,112.48M416.48,138.5L444.93,138.5L444.93,112.48L416.48,112.48L416.48,138.5ZM309.89,138.5L338.34,138.5L338.34,112.48L309.89,112.48L309.89,138.5ZM390.99,186.09L362.88,186.09L373.15,154.07L376.89,141.37L377.41,141.37L380.98,154.07L390.99,186.09ZM449.11,235.08L399.43,112.57L355.14,112.57L306.41,235.08L347.13,235.08L353.66,214.46L399.69,214.46L406.04,235.08L449.02,235.08M1029.66,154.59C1029.66,166.16 1025.05,169.12 1013.82,169.12L997.81,169.12L997.81,141.19L1013.99,141.19C1025.74,141.19 1029.65,144.32 1029.65,154.59L1029.66,154.59ZM1069.69,153.11C1069.69,125.79 1050.55,112.56 1014.61,112.56L959.53,112.56L959.53,235.07L997.73,235.07L997.73,194.7L1013.57,194.7L1034.28,235.07L1079.35,235.07L1048.03,187.39C1061.78,182.52 1069.61,168.94 1069.61,153.11M683.18,115.35C674.39,112.39 661.77,110.3 650.2,110.3C603.13,110.3 582.24,134.66 582.24,173.38C582.24,215.23 604.43,237.42 646.89,237.42C659.51,237.42 673.17,234.46 683.52,229.85L679.43,201.74C671.6,204.87 662.11,206.79 651.93,206.79C628.61,206.79 622.52,198.78 622.52,173.46C622.52,149.44 628.09,141.44 651.58,141.44C662.54,141.44 671.68,143.09 679.34,145.18L683.08,115.25M817.96,235.08L817.96,112.57L779.85,112.57L779.85,157.82L739.21,157.82L739.21,112.57L701.01,112.57L701.01,235.08L739.21,235.08L739.21,189.05L779.85,189.05L779.85,235.08L817.96,235.08ZM879.22,204.89L879.22,186.27L929.08,186.27L929.08,159.47L879.22,159.47L879.22,143.11L939.52,143.11L938.82,112.57L840.93,112.57L840.93,235.08L941.26,235.08L941.96,204.89L879.22,204.89ZM531.17,154.59C531.17,166.16 526.56,169.12 515.33,169.12L499.32,169.12L499.32,141.19L515.5,141.19C527.25,141.19 531.16,144.32 531.16,154.59L531.17,154.59ZM571.28,153.11C571.28,125.79 552.14,112.56 516.2,112.56L461.12,112.56L461.12,235.07L499.32,235.07L499.32,194.7L515.16,194.7L535.87,235.07L580.94,235.07L549.62,187.39C563.37,182.52 571.2,168.94 571.2,153.11" style="fill:white;fill-rule:nonzero;"/>
        </g>
        <g transform="matrix(6.24954,0,0,6.24954,536.511,-144.631)">
            <g transform="matrix(7.05961,0,0,7.05961,8.89483,65.8106)">
                <path d="M0.531,-0.263L0.671,-0.219C0.649,-0.141 0.614,-0.083 0.564,-0.045C0.514,-0.007 0.45,0.012 0.374,0.012C0.278,0.012 0.2,-0.02 0.139,-0.085C0.078,-0.15 0.047,-0.239 0.047,-0.352C0.047,-0.471 0.078,-0.563 0.14,-0.629C0.201,-0.695 0.282,-0.728 0.382,-0.728C0.47,-0.728 0.541,-0.702 0.596,-0.65C0.628,-0.62 0.653,-0.576 0.669,-0.519L0.526,-0.484C0.517,-0.521 0.5,-0.551 0.473,-0.572C0.446,-0.594 0.413,-0.604 0.375,-0.604C0.322,-0.604 0.279,-0.585 0.246,-0.547C0.213,-0.509 0.196,-0.448 0.196,-0.362C0.196,-0.272 0.213,-0.207 0.245,-0.169C0.278,-0.131 0.32,-0.111 0.372,-0.111C0.41,-0.111 0.444,-0.124 0.471,-0.148C0.499,-0.172 0.519,-0.211 0.531,-0.263ZM0.203,-0.904L0.314,-0.904L0.367,-0.831L0.423,-0.904L0.534,-0.904L0.433,-0.76L0.306,-0.76L0.203,-0.904Z" style="fill:white;fill-rule:nonzero;"/>
            </g>
            <g transform="matrix(7.05961,0,0,7.05961,13.9931,65.8106)">
                <rect x="0.068" y="-0.716" width="0.145" height="0.716" style="fill:white;fill-rule:nonzero;"/>
            </g>
            <g transform="matrix(7.05961,0,0,7.05961,15.9544,65.8106)">
                <path d="M0.036,-0.233L0.177,-0.247C0.185,-0.199 0.202,-0.165 0.228,-0.143C0.254,-0.12 0.289,-0.109 0.333,-0.109C0.38,-0.109 0.415,-0.119 0.438,-0.139C0.462,-0.159 0.474,-0.182 0.474,-0.208C0.474,-0.225 0.469,-0.239 0.459,-0.251C0.449,-0.263 0.431,-0.273 0.407,-0.282C0.39,-0.288 0.351,-0.299 0.291,-0.313C0.214,-0.333 0.159,-0.356 0.128,-0.384C0.084,-0.424 0.062,-0.472 0.062,-0.528C0.062,-0.565 0.072,-0.599 0.093,-0.631C0.114,-0.662 0.143,-0.687 0.182,-0.703C0.221,-0.72 0.268,-0.728 0.323,-0.728C0.413,-0.728 0.481,-0.708 0.526,-0.669C0.572,-0.63 0.595,-0.577 0.598,-0.511L0.453,-0.505C0.447,-0.542 0.434,-0.568 0.413,-0.584C0.393,-0.6 0.362,-0.608 0.322,-0.608C0.28,-0.608 0.247,-0.6 0.223,-0.583C0.208,-0.571 0.2,-0.557 0.2,-0.538C0.2,-0.521 0.207,-0.507 0.222,-0.495C0.24,-0.479 0.284,-0.463 0.354,-0.447C0.425,-0.43 0.477,-0.413 0.51,-0.395C0.544,-0.378 0.571,-0.353 0.59,-0.323C0.609,-0.292 0.618,-0.254 0.618,-0.208C0.618,-0.167 0.607,-0.129 0.584,-0.093C0.561,-0.057 0.529,-0.031 0.487,-0.013C0.446,0.004 0.394,0.013 0.332,0.013C0.241,0.013 0.172,-0.008 0.123,-0.05C0.075,-0.092 0.046,-0.153 0.036,-0.233Z" style="fill:white;fill-rule:nonzero;"/>
            </g>
            <g transform="matrix(7.05961,0,0,7.05961,20.6631,65.8106)">
                <path d="M0.234,-0L0.234,-0.595L0.021,-0.595L0.021,-0.716L0.59,-0.716L0.59,-0.595L0.378,-0.595L0.378,-0L0.234,-0Z" style="fill:white;fill-rule:nonzero;"/>
            </g>
            <g transform="matrix(7.05961,0,0,7.05961,24.9754,65.8106)">
                <path d="M0.068,-0L0.068,-0.716L0.213,-0.716L0.213,-0L0.068,-0ZM0.052,-0.757L0.119,-0.903L0.273,-0.903L0.139,-0.757L0.052,-0.757Z" style="fill:white;fill-rule:nonzero;"/>
            </g>
            <g transform="matrix(7.05961,0,0,7.05961,26.9368,65.8106)">
                <path d="M0.531,-0.263L0.671,-0.219C0.649,-0.141 0.614,-0.083 0.564,-0.045C0.514,-0.007 0.45,0.012 0.374,0.012C0.278,0.012 0.2,-0.02 0.139,-0.085C0.078,-0.15 0.047,-0.239 0.047,-0.352C0.047,-0.471 0.078,-0.563 0.14,-0.629C0.201,-0.695 0.282,-0.728 0.382,-0.728C0.47,-0.728 0.541,-0.702 0.596,-0.65C0.628,-0.62 0.653,-0.576 0.669,-0.519L0.526,-0.484C0.517,-0.521 0.5,-0.551 0.473,-0.572C0.446,-0.594 0.413,-0.604 0.375,-0.604C0.322,-0.604 0.279,-0.585 0.246,-0.547C0.213,-0.509 0.196,-0.448 0.196,-0.362C0.196,-0.272 0.213,-0.207 0.245,-0.169C0.278,-0.131 0.32,-0.111 0.372,-0.111C0.41,-0.111 0.444,-0.124 0.471,-0.148C0.499,-0.172 0.519,-0.211 0.531,-0.263Z" style="fill:white;fill-rule:nonzero;"/>
            </g>
            <g transform="matrix(7.05961,0,0,7.05961,32.035,65.8106)">
                <path d="M0.068,-0L0.068,-0.716L0.213,-0.716L0.213,-0L0.068,-0ZM0.052,-0.757L0.119,-0.903L0.273,-0.903L0.139,-0.757L0.052,-0.757Z" style="fill:white;fill-rule:nonzero;"/>
            </g>
            <g transform="matrix(7.05961,0,0,7.05961,35.9578,65.8106)">
                <path d="M0.036,-0.233L0.177,-0.247C0.185,-0.199 0.202,-0.165 0.228,-0.143C0.254,-0.12 0.289,-0.109 0.333,-0.109C0.38,-0.109 0.415,-0.119 0.438,-0.139C0.462,-0.159 0.474,-0.182 0.474,-0.208C0.474,-0.225 0.469,-0.239 0.459,-0.251C0.449,-0.263 0.431,-0.273 0.407,-0.282C0.39,-0.288 0.351,-0.299 0.291,-0.313C0.214,-0.333 0.159,-0.356 0.128,-0.384C0.084,-0.424 0.062,-0.472 0.062,-0.528C0.062,-0.565 0.072,-0.599 0.093,-0.631C0.114,-0.662 0.143,-0.687 0.182,-0.703C0.221,-0.72 0.268,-0.728 0.323,-0.728C0.413,-0.728 0.481,-0.708 0.526,-0.669C0.572,-0.63 0.595,-0.577 0.598,-0.511L0.453,-0.505C0.447,-0.542 0.434,-0.568 0.413,-0.584C0.393,-0.6 0.362,-0.608 0.322,-0.608C0.28,-0.608 0.247,-0.6 0.223,-0.583C0.208,-0.571 0.2,-0.557 0.2,-0.538C0.2,-0.521 0.207,-0.507 0.222,-0.495C0.24,-0.479 0.284,-0.463 0.354,-0.447C0.425,-0.43 0.477,-0.413 0.51,-0.395C0.544,-0.378 0.571,-0.353 0.59,-0.323C0.609,-0.292 0.618,-0.254 0.618,-0.208C0.618,-0.167 0.607,-0.129 0.584,-0.093C0.561,-0.057 0.529,-0.031 0.487,-0.013C0.446,0.004 0.394,0.013 0.332,0.013C0.241,0.013 0.172,-0.008 0.123,-0.05C0.075,-0.092 0.046,-0.153 0.036,-0.233Z" style="fill:white;fill-rule:nonzero;"/>
            </g>
            <g transform="matrix(7.05961,0,0,7.05961,40.6665,65.8106)">
                <path d="M0.234,-0L0.234,-0.595L0.021,-0.595L0.021,-0.716L0.59,-0.716L0.59,-0.595L0.378,-0.595L0.378,-0L0.234,-0Z" style="fill:white;fill-rule:nonzero;"/>
            </g>
            <g transform="matrix(7.05961,0,0,7.05961,44.9788,65.8106)">
                <path d="M0.073,-0L0.073,-0.716L0.377,-0.716C0.454,-0.716 0.51,-0.709 0.544,-0.697C0.579,-0.684 0.607,-0.661 0.627,-0.628C0.648,-0.595 0.659,-0.557 0.659,-0.515C0.659,-0.461 0.643,-0.417 0.611,-0.382C0.58,-0.347 0.533,-0.325 0.47,-0.316C0.501,-0.298 0.527,-0.278 0.547,-0.256C0.567,-0.234 0.595,-0.195 0.629,-0.14L0.717,-0L0.544,-0L0.439,-0.156C0.402,-0.211 0.377,-0.247 0.363,-0.261C0.35,-0.275 0.335,-0.285 0.32,-0.291C0.305,-0.296 0.28,-0.299 0.247,-0.299L0.218,-0.299L0.218,-0L0.073,-0ZM0.218,-0.413L0.325,-0.413C0.394,-0.413 0.437,-0.416 0.455,-0.422C0.472,-0.428 0.485,-0.438 0.495,-0.452C0.505,-0.466 0.51,-0.484 0.51,-0.506C0.51,-0.53 0.503,-0.549 0.49,-0.564C0.478,-0.579 0.459,-0.588 0.436,-0.592C0.424,-0.594 0.389,-0.595 0.331,-0.595L0.218,-0.595L0.218,-0.413Z" style="fill:white;fill-rule:nonzero;"/>
            </g>
            <g transform="matrix(7.05961,0,0,7.05961,50.077,65.8106)">
                <path d="M0.043,-0.354C0.043,-0.426 0.054,-0.488 0.076,-0.537C0.092,-0.574 0.115,-0.606 0.143,-0.635C0.171,-0.664 0.202,-0.686 0.235,-0.7C0.28,-0.719 0.331,-0.728 0.39,-0.728C0.495,-0.728 0.58,-0.695 0.643,-0.63C0.706,-0.564 0.738,-0.473 0.738,-0.357C0.738,-0.241 0.706,-0.151 0.644,-0.086C0.581,-0.02 0.497,0.012 0.392,0.012C0.285,0.012 0.201,-0.02 0.138,-0.085C0.075,-0.15 0.043,-0.24 0.043,-0.354ZM0.192,-0.358C0.192,-0.277 0.211,-0.216 0.249,-0.174C0.286,-0.132 0.333,-0.111 0.391,-0.111C0.449,-0.111 0.496,-0.132 0.533,-0.174C0.57,-0.215 0.588,-0.277 0.588,-0.36C0.588,-0.442 0.57,-0.504 0.534,-0.544C0.498,-0.584 0.451,-0.604 0.391,-0.604C0.332,-0.604 0.284,-0.584 0.247,-0.543C0.211,-0.502 0.192,-0.441 0.192,-0.358Z" style="fill:white;fill-rule:nonzero;"/>
            </g>
            <g transform="matrix(7.05961,0,0,7.05961,55.5682,65.8106)">
                <path d="M0.331,-0.716L0.475,-0.716L0.475,-0.263C0.475,-0.203 0.47,-0.158 0.459,-0.126C0.445,-0.084 0.42,-0.051 0.383,-0.026C0.347,-0 0.298,0.012 0.238,0.012C0.167,0.012 0.113,-0.008 0.075,-0.047C0.037,-0.087 0.017,-0.145 0.017,-0.221L0.153,-0.237C0.155,-0.196 0.161,-0.167 0.171,-0.15C0.187,-0.124 0.211,-0.111 0.243,-0.111C0.275,-0.111 0.298,-0.121 0.311,-0.139C0.324,-0.157 0.331,-0.195 0.331,-0.253L0.331,-0.716Z" style="fill:white;fill-rule:nonzero;"/>
            </g>
            <g transform="matrix(7.05961,0,0,7.05961,59.4944,65.8106)">
                <path d="M0.073,-0L0.073,-0.716L0.604,-0.716L0.604,-0.595L0.217,-0.595L0.217,-0.436L0.577,-0.436L0.577,-0.315L0.217,-0.315L0.217,-0.121L0.617,-0.121L0.617,-0L0.073,-0Z" style="fill:white;fill-rule:nonzero;"/>
            </g>
            <g transform="matrix(7.05961,0,0,7.05961,66.1645,65.8106)">
                <path d="M0.036,-0.233L0.177,-0.247C0.185,-0.199 0.202,-0.165 0.228,-0.143C0.254,-0.12 0.289,-0.109 0.333,-0.109C0.38,-0.109 0.415,-0.119 0.438,-0.139C0.462,-0.159 0.474,-0.182 0.474,-0.208C0.474,-0.225 0.469,-0.239 0.459,-0.251C0.449,-0.263 0.431,-0.273 0.407,-0.282C0.39,-0.288 0.351,-0.299 0.291,-0.313C0.214,-0.333 0.159,-0.356 0.128,-0.384C0.084,-0.424 0.062,-0.472 0.062,-0.528C0.062,-0.565 0.072,-0.599 0.093,-0.631C0.114,-0.662 0.143,-0.687 0.182,-0.703C0.221,-0.72 0.268,-0.728 0.323,-0.728C0.413,-0.728 0.481,-0.708 0.526,-0.669C0.572,-0.63 0.595,-0.577 0.598,-0.511L0.453,-0.505C0.447,-0.542 0.434,-0.568 0.413,-0.584C0.393,-0.6 0.362,-0.608 0.322,-0.608C0.28,-0.608 0.247,-0.6 0.223,-0.583C0.208,-0.571 0.2,-0.557 0.2,-0.538C0.2,-0.521 0.207,-0.507 0.222,-0.495C0.24,-0.479 0.284,-0.463 0.354,-0.447C0.425,-0.43 0.477,-0.413 0.51,-0.395C0.544,-0.378 0.571,-0.353 0.59,-0.323C0.609,-0.292 0.618,-0.254 0.618,-0.208C0.618,-0.167 0.607,-0.129 0.584,-0.093C0.561,-0.057 0.529,-0.031 0.487,-0.013C0.446,0.004 0.394,0.013 0.332,0.013C0.241,0.013 0.172,-0.008 0.123,-0.05C0.075,-0.092 0.046,-0.153 0.036,-0.233Z" style="fill:white;fill-rule:nonzero;"/>
            </g>
            <g transform="matrix(7.05961,0,0,7.05961,70.8732,65.8106)">
                <rect x="0.072" y="-0.137" width="0.137" height="0.137" style="fill:white;fill-rule:nonzero;"/>
            </g>
            <g transform="matrix(7.05961,0,0,7.05961,72.8346,65.8106)">
                <path d="M0.073,-0L0.073,-0.716L0.377,-0.716C0.454,-0.716 0.51,-0.709 0.544,-0.697C0.579,-0.684 0.607,-0.661 0.627,-0.628C0.648,-0.595 0.659,-0.557 0.659,-0.515C0.659,-0.461 0.643,-0.417 0.611,-0.382C0.58,-0.347 0.533,-0.325 0.47,-0.316C0.501,-0.298 0.527,-0.278 0.547,-0.256C0.567,-0.234 0.595,-0.195 0.629,-0.14L0.717,-0L0.544,-0L0.439,-0.156C0.402,-0.211 0.377,-0.247 0.363,-0.261C0.35,-0.275 0.335,-0.285 0.32,-0.291C0.305,-0.296 0.28,-0.299 0.247,-0.299L0.218,-0.299L0.218,-0L0.073,-0ZM0.218,-0.413L0.325,-0.413C0.394,-0.413 0.437,-0.416 0.455,-0.422C0.472,-0.428 0.485,-0.438 0.495,-0.452C0.505,-0.466 0.51,-0.484 0.51,-0.506C0.51,-0.53 0.503,-0.549 0.49,-0.564C0.478,-0.579 0.459,-0.588 0.436,-0.592C0.424,-0.594 0.389,-0.595 0.331,-0.595L0.218,-0.595L0.218,-0.413Z" style="fill:white;fill-rule:nonzero;"/>
            </g>
            <g transform="matrix(7.05961,0,0,7.05961,77.9328,65.8106)">
                <rect x="0.072" y="-0.137" width="0.137" height="0.137" style="fill:white;fill-rule:nonzero;"/>
            </g>
            <g transform="matrix(7.05961,0,0,7.05961,79.8942,65.8106)">
                <path d="M0.043,-0.354C0.043,-0.426 0.054,-0.488 0.076,-0.537C0.092,-0.574 0.115,-0.606 0.143,-0.635C0.171,-0.664 0.202,-0.686 0.235,-0.7C0.28,-0.719 0.331,-0.728 0.39,-0.728C0.495,-0.728 0.58,-0.695 0.643,-0.63C0.706,-0.564 0.738,-0.473 0.738,-0.357C0.738,-0.241 0.706,-0.151 0.644,-0.086C0.581,-0.02 0.497,0.012 0.392,0.012C0.285,0.012 0.201,-0.02 0.138,-0.085C0.075,-0.15 0.043,-0.24 0.043,-0.354ZM0.192,-0.358C0.192,-0.277 0.211,-0.216 0.249,-0.174C0.286,-0.132 0.333,-0.111 0.391,-0.111C0.449,-0.111 0.496,-0.132 0.533,-0.174C0.57,-0.215 0.588,-0.277 0.588,-0.36C0.588,-0.442 0.57,-0.504 0.534,-0.544C0.498,-0.584 0.451,-0.604 0.391,-0.604C0.332,-0.604 0.284,-0.584 0.247,-0.543C0.211,-0.502 0.192,-0.441 0.192,-0.358Z" style="fill:white;fill-rule:nonzero;"/>
            </g>
            <g transform="matrix(7.05961,0,0,7.05961,85.3854,65.8106)">
                <rect x="0.072" y="-0.137" width="0.137" height="0.137" style="fill:white;fill-rule:nonzero;"/>
            </g>
        </g>
    </g>
</svg>
