<?xml version="1.0" encoding="UTF-8" standalone="no"?>
<!DOCTYPE svg PUBLIC "-//W3C//DTD SVG 1.1//EN" "http://www.w3.org/Graphics/SVG/1.1/DTD/svg11.dtd">
<svg width="100%" height="100%" viewBox="0 0 117 55" version="1.1" xmlns="http://www.w3.org/2000/svg" xmlns:xlink="http://www.w3.org/1999/xlink" xml:space="preserve" xmlns:serif="http://www.serif.com/" style="fill-rule:evenodd;clip-rule:evenodd;stroke-linejoin:round;stroke-miterlimit:2;">
    <g transform="matrix(0.466135,0,0,0.466135,58.5,27.5)">
        <g transform="matrix(1.59778,0,0,1.59778,-83.8645,1.26213)">
            <g transform="matrix(24,0,0,24,0,0)">
                <path d="M0.382,-0.388L0.648,-0.388L0.648,-0.029C0.611,-0.017 0.572,-0.007 0.532,-0C0.492,0.006 0.447,0.01 0.397,0.01C0.325,0.01 0.263,-0.005 0.213,-0.033C0.163,-0.062 0.125,-0.104 0.099,-0.159C0.073,-0.214 0.06,-0.28 0.06,-0.357C0.06,-0.432 0.074,-0.497 0.103,-0.552C0.132,-0.606 0.174,-0.649 0.229,-0.679C0.285,-0.709 0.352,-0.724 0.431,-0.724C0.469,-0.724 0.507,-0.72 0.543,-0.713C0.58,-0.705 0.613,-0.694 0.643,-0.681L0.602,-0.584C0.578,-0.596 0.551,-0.605 0.521,-0.613C0.491,-0.621 0.46,-0.625 0.428,-0.625C0.377,-0.625 0.333,-0.614 0.296,-0.592C0.259,-0.57 0.23,-0.538 0.21,-0.498C0.191,-0.458 0.181,-0.411 0.181,-0.356C0.181,-0.303 0.189,-0.256 0.205,-0.216C0.221,-0.176 0.246,-0.145 0.28,-0.123C0.314,-0.101 0.358,-0.089 0.412,-0.089C0.439,-0.089 0.462,-0.091 0.48,-0.094C0.499,-0.097 0.517,-0.1 0.533,-0.104L0.533,-0.288L0.382,-0.288L0.382,-0.388Z" style="fill:white;fill-rule:nonzero;"/>
            </g>
            <g transform="matrix(24,0,0,24,17.4141,0)">
                <path d="M0.356,-0.551C0.365,-0.551 0.375,-0.55 0.386,-0.549C0.396,-0.548 0.406,-0.547 0.414,-0.545L0.403,-0.438C0.396,-0.44 0.388,-0.441 0.378,-0.442C0.368,-0.443 0.359,-0.444 0.351,-0.444C0.331,-0.444 0.311,-0.441 0.292,-0.434C0.274,-0.427 0.257,-0.417 0.243,-0.404C0.229,-0.39 0.218,-0.373 0.209,-0.353C0.201,-0.333 0.197,-0.309 0.197,-0.283L0.197,-0L0.082,-0L0.082,-0.541L0.172,-0.541L0.188,-0.445L0.193,-0.445C0.204,-0.465 0.217,-0.482 0.233,-0.498C0.249,-0.514 0.267,-0.527 0.288,-0.536C0.309,-0.546 0.331,-0.551 0.356,-0.551Z" style="fill:white;fill-rule:nonzero;"/>
            </g>
            <g transform="matrix(24,0,0,24,27.7734,0)">
                <path d="M0.561,-0.271C0.561,-0.227 0.555,-0.187 0.543,-0.152C0.531,-0.117 0.514,-0.088 0.492,-0.064C0.469,-0.04 0.442,-0.022 0.411,-0.009C0.379,0.003 0.343,0.01 0.304,0.01C0.267,0.01 0.233,0.003 0.202,-0.009C0.171,-0.022 0.144,-0.04 0.121,-0.064C0.099,-0.088 0.081,-0.117 0.069,-0.152C0.056,-0.187 0.05,-0.227 0.05,-0.271C0.05,-0.331 0.061,-0.382 0.081,-0.423C0.102,-0.465 0.132,-0.496 0.17,-0.518C0.208,-0.54 0.254,-0.551 0.307,-0.551C0.357,-0.551 0.401,-0.54 0.439,-0.518C0.477,-0.496 0.507,-0.465 0.528,-0.423C0.55,-0.381 0.561,-0.331 0.561,-0.271ZM0.168,-0.271C0.168,-0.232 0.173,-0.198 0.183,-0.17C0.192,-0.142 0.207,-0.121 0.228,-0.106C0.248,-0.091 0.274,-0.084 0.306,-0.084C0.338,-0.084 0.364,-0.091 0.384,-0.106C0.404,-0.121 0.419,-0.142 0.428,-0.17C0.438,-0.198 0.442,-0.232 0.442,-0.271C0.442,-0.311 0.438,-0.344 0.428,-0.372C0.419,-0.399 0.404,-0.42 0.384,-0.435C0.364,-0.449 0.337,-0.457 0.305,-0.457C0.258,-0.457 0.223,-0.441 0.201,-0.409C0.179,-0.377 0.168,-0.331 0.168,-0.271Z" style="fill:white;fill-rule:nonzero;"/>
            </g>
            <g transform="matrix(24,0,0,24,42.4219,0)">
                <path d="M0.524,-0L0.456,-0.252C0.452,-0.264 0.448,-0.279 0.444,-0.297C0.439,-0.314 0.435,-0.333 0.43,-0.351C0.426,-0.37 0.421,-0.387 0.418,-0.403C0.414,-0.419 0.411,-0.432 0.409,-0.44L0.405,-0.44C0.404,-0.432 0.401,-0.419 0.397,-0.403C0.394,-0.387 0.39,-0.37 0.385,-0.351C0.381,-0.332 0.376,-0.314 0.372,-0.296C0.367,-0.278 0.363,-0.263 0.36,-0.25L0.288,-0L0.162,-0L0.011,-0.541L0.127,-0.541L0.197,-0.272C0.202,-0.254 0.206,-0.235 0.211,-0.213C0.215,-0.192 0.219,-0.172 0.222,-0.153C0.225,-0.134 0.228,-0.118 0.229,-0.105L0.233,-0.105C0.235,-0.114 0.236,-0.125 0.239,-0.139C0.241,-0.152 0.244,-0.167 0.247,-0.181C0.25,-0.196 0.252,-0.21 0.255,-0.223C0.258,-0.237 0.261,-0.247 0.264,-0.255L0.347,-0.541L0.472,-0.541L0.552,-0.255C0.555,-0.243 0.559,-0.227 0.563,-0.209C0.568,-0.19 0.572,-0.171 0.575,-0.153C0.578,-0.134 0.581,-0.118 0.582,-0.106L0.585,-0.106C0.587,-0.117 0.589,-0.132 0.593,-0.151C0.596,-0.17 0.6,-0.191 0.604,-0.212C0.609,-0.234 0.614,-0.254 0.619,-0.272L0.69,-0.541L0.805,-0.541L0.652,-0L0.524,-0Z" style="fill:white;fill-rule:nonzero;"/>
            </g>
            <g transform="matrix(24,0,0,24,68.2266,0)">
                <rect x="0.094" y="-0.714" width="0.117" height="0.714" style="fill:white;"/>
            </g>
            <g transform="matrix(24,0,0,24,75.5508,0)">
                <path d="M0.341,-0L0.224,-0L0.224,-0.614L0.015,-0.614L0.015,-0.714L0.55,-0.714L0.55,-0.614L0.341,-0.614L0.341,-0Z" style="fill:white;fill-rule:nonzero;"/>
            </g>
            <g transform="matrix(24,0,0,24,89.1094,0)">
                <path d="M0.398,-0.625C0.364,-0.625 0.333,-0.618 0.306,-0.606C0.28,-0.594 0.257,-0.576 0.238,-0.552C0.22,-0.529 0.206,-0.501 0.196,-0.468C0.186,-0.435 0.181,-0.398 0.181,-0.356C0.181,-0.301 0.189,-0.253 0.205,-0.214C0.22,-0.174 0.244,-0.143 0.276,-0.122C0.308,-0.101 0.348,-0.09 0.397,-0.09C0.427,-0.09 0.457,-0.093 0.485,-0.099C0.514,-0.104 0.544,-0.112 0.574,-0.123L0.574,-0.023C0.545,-0.012 0.516,-0.003 0.486,0.002C0.457,0.007 0.423,0.01 0.384,0.01C0.311,0.01 0.25,-0.005 0.202,-0.036C0.154,-0.066 0.119,-0.109 0.095,-0.164C0.071,-0.219 0.06,-0.283 0.06,-0.357C0.06,-0.411 0.067,-0.46 0.082,-0.505C0.097,-0.55 0.119,-0.589 0.147,-0.622C0.176,-0.655 0.212,-0.68 0.254,-0.698C0.296,-0.715 0.344,-0.724 0.398,-0.724C0.434,-0.724 0.469,-0.72 0.504,-0.712C0.539,-0.704 0.571,-0.693 0.601,-0.678L0.56,-0.582C0.535,-0.593 0.509,-0.603 0.482,-0.612C0.455,-0.62 0.427,-0.625 0.398,-0.625Z" style="fill:white;fill-rule:nonzero;"/>
            </g>
        </g>
        <g transform="matrix(2.32474,0,0,2.32474,-113.821,23.1392)">
            <g transform="matrix(6,0,0,6,0,0)">
                <rect x="0.098" y="-0.714" width="0.083" height="0.714" style="fill:white;"/>
            </g>
            <g transform="matrix(6,0,0,6,1.67578,0)">
                <path d="M0.339,-0.545C0.402,-0.545 0.45,-0.529 0.483,-0.498C0.515,-0.467 0.532,-0.417 0.532,-0.349L0.532,-0L0.452,-0L0.452,-0.343C0.452,-0.388 0.441,-0.421 0.421,-0.443C0.401,-0.465 0.37,-0.477 0.328,-0.477C0.268,-0.477 0.227,-0.46 0.203,-0.426C0.179,-0.393 0.167,-0.344 0.167,-0.28L0.167,-0L0.085,-0L0.085,-0.535L0.151,-0.535L0.163,-0.458L0.167,-0.458C0.179,-0.477 0.193,-0.493 0.211,-0.506C0.229,-0.518 0.248,-0.528 0.27,-0.535C0.292,-0.542 0.315,-0.545 0.339,-0.545Z" style="fill:white;fill-rule:nonzero;"/>
            </g>
            <g transform="matrix(6,0,0,6,5.35547,0)">
                <path d="M0.258,-0.057C0.272,-0.057 0.285,-0.058 0.299,-0.06C0.313,-0.062 0.325,-0.065 0.333,-0.068L0.333,-0.005C0.324,-0.001 0.311,0.002 0.294,0.005C0.277,0.008 0.261,0.01 0.245,0.01C0.217,0.01 0.191,0.005 0.168,-0.005C0.145,-0.015 0.126,-0.032 0.113,-0.056C0.099,-0.079 0.092,-0.112 0.092,-0.154L0.092,-0.472L0.016,-0.472L0.016,-0.511L0.092,-0.543L0.125,-0.659L0.173,-0.659L0.173,-0.535L0.33,-0.535L0.33,-0.472L0.173,-0.472L0.173,-0.157C0.173,-0.123 0.181,-0.098 0.197,-0.082C0.212,-0.065 0.233,-0.057 0.258,-0.057Z" style="fill:white;fill-rule:nonzero;"/>
            </g>
            <g transform="matrix(6,0,0,6,7.49414,0)">
                <path d="M0.292,-0.545C0.337,-0.545 0.376,-0.535 0.409,-0.515C0.441,-0.494 0.466,-0.466 0.483,-0.43C0.501,-0.394 0.509,-0.351 0.509,-0.303L0.509,-0.252L0.14,-0.252C0.141,-0.19 0.156,-0.142 0.187,-0.109C0.217,-0.076 0.259,-0.06 0.314,-0.06C0.348,-0.06 0.378,-0.063 0.404,-0.069C0.43,-0.075 0.457,-0.084 0.485,-0.096L0.485,-0.025C0.458,-0.013 0.432,-0.004 0.405,0.001C0.378,0.007 0.347,0.01 0.311,0.01C0.26,0.01 0.215,-0.001 0.177,-0.022C0.138,-0.043 0.109,-0.074 0.087,-0.114C0.066,-0.155 0.056,-0.205 0.056,-0.264C0.056,-0.321 0.065,-0.371 0.085,-0.413C0.104,-0.455 0.131,-0.488 0.167,-0.511C0.202,-0.534 0.244,-0.545 0.292,-0.545ZM0.291,-0.479C0.247,-0.479 0.213,-0.464 0.187,-0.436C0.161,-0.408 0.146,-0.368 0.141,-0.317L0.424,-0.317C0.424,-0.349 0.419,-0.377 0.409,-0.402C0.4,-0.426 0.385,-0.445 0.366,-0.458C0.346,-0.472 0.321,-0.479 0.291,-0.479Z" style="fill:white;fill-rule:nonzero;"/>
            </g>
            <g transform="matrix(6,0,0,6,10.8633,0)">
                <path d="M0.329,-0.545C0.339,-0.545 0.351,-0.544 0.362,-0.543C0.374,-0.542 0.384,-0.541 0.394,-0.539L0.383,-0.463C0.375,-0.466 0.365,-0.467 0.354,-0.469C0.343,-0.47 0.333,-0.471 0.324,-0.471C0.302,-0.471 0.282,-0.466 0.263,-0.458C0.244,-0.449 0.227,-0.437 0.213,-0.421C0.199,-0.405 0.187,-0.385 0.179,-0.363C0.171,-0.34 0.167,-0.315 0.167,-0.287L0.167,-0L0.085,-0L0.085,-0.535L0.153,-0.535L0.162,-0.437L0.165,-0.437C0.176,-0.456 0.189,-0.475 0.205,-0.491C0.221,-0.507 0.239,-0.521 0.26,-0.53C0.28,-0.54 0.303,-0.545 0.329,-0.545Z" style="fill:white;fill-rule:nonzero;"/>
            </g>
            <g transform="matrix(6,0,0,6,13.3154,0)">
                <path d="M0.339,-0.545C0.402,-0.545 0.45,-0.529 0.483,-0.498C0.515,-0.467 0.532,-0.417 0.532,-0.349L0.532,-0L0.452,-0L0.452,-0.343C0.452,-0.388 0.441,-0.421 0.421,-0.443C0.401,-0.465 0.37,-0.477 0.328,-0.477C0.268,-0.477 0.227,-0.46 0.203,-0.426C0.179,-0.393 0.167,-0.344 0.167,-0.28L0.167,-0L0.085,-0L0.085,-0.535L0.151,-0.535L0.163,-0.458L0.167,-0.458C0.179,-0.477 0.193,-0.493 0.211,-0.506C0.229,-0.518 0.248,-0.528 0.27,-0.535C0.292,-0.542 0.315,-0.545 0.339,-0.545Z" style="fill:white;fill-rule:nonzero;"/>
            </g>
            <g transform="matrix(6,0,0,6,16.9951,0)">
                <path d="M0.286,-0.544C0.349,-0.544 0.397,-0.53 0.428,-0.501C0.459,-0.472 0.474,-0.427 0.474,-0.364L0.474,-0L0.415,-0L0.399,-0.079L0.396,-0.079C0.381,-0.06 0.365,-0.043 0.349,-0.03C0.332,-0.017 0.314,-0.007 0.292,-0C0.271,0.006 0.245,0.01 0.214,0.01C0.181,0.01 0.152,0.004 0.127,-0.007C0.102,-0.019 0.082,-0.036 0.068,-0.059C0.053,-0.082 0.046,-0.111 0.046,-0.147C0.046,-0.2 0.067,-0.241 0.109,-0.27C0.152,-0.299 0.216,-0.314 0.303,-0.317L0.395,-0.321L0.395,-0.354C0.395,-0.4 0.385,-0.432 0.365,-0.451C0.345,-0.469 0.317,-0.479 0.281,-0.479C0.253,-0.479 0.227,-0.474 0.201,-0.466C0.176,-0.458 0.152,-0.449 0.129,-0.438L0.104,-0.499C0.128,-0.511 0.156,-0.522 0.187,-0.531C0.218,-0.54 0.251,-0.544 0.286,-0.544ZM0.394,-0.264L0.313,-0.26C0.246,-0.258 0.199,-0.247 0.171,-0.228C0.144,-0.208 0.13,-0.181 0.13,-0.146C0.13,-0.115 0.14,-0.093 0.158,-0.078C0.177,-0.063 0.201,-0.056 0.232,-0.056C0.279,-0.056 0.318,-0.069 0.349,-0.096C0.379,-0.122 0.394,-0.162 0.394,-0.214L0.394,-0.264Z" style="fill:white;fill-rule:nonzero;"/>
            </g>
            <g transform="matrix(6,0,0,6,20.3291,0)">
                <path d="M0.258,-0.057C0.272,-0.057 0.285,-0.058 0.299,-0.06C0.313,-0.062 0.325,-0.065 0.333,-0.068L0.333,-0.005C0.324,-0.001 0.311,0.002 0.294,0.005C0.277,0.008 0.261,0.01 0.245,0.01C0.217,0.01 0.191,0.005 0.168,-0.005C0.145,-0.015 0.126,-0.032 0.113,-0.056C0.099,-0.079 0.092,-0.112 0.092,-0.154L0.092,-0.472L0.016,-0.472L0.016,-0.511L0.092,-0.543L0.125,-0.659L0.173,-0.659L0.173,-0.535L0.33,-0.535L0.33,-0.472L0.173,-0.472L0.173,-0.157C0.173,-0.123 0.181,-0.098 0.197,-0.082C0.212,-0.065 0.233,-0.057 0.258,-0.057Z" style="fill:white;fill-rule:nonzero;"/>
            </g>
            <g transform="matrix(6,0,0,6,22.4678,0)">
                <path d="M0.167,-0.535L0.167,-0L0.085,-0L0.085,-0.535L0.167,-0.535ZM0.127,-0.735C0.14,-0.735 0.152,-0.731 0.161,-0.722C0.171,-0.714 0.176,-0.7 0.176,-0.682C0.176,-0.664 0.171,-0.651 0.161,-0.642C0.152,-0.633 0.14,-0.629 0.127,-0.629C0.113,-0.629 0.101,-0.633 0.092,-0.642C0.083,-0.651 0.078,-0.664 0.078,-0.682C0.078,-0.7 0.083,-0.714 0.092,-0.722C0.101,-0.731 0.113,-0.735 0.127,-0.735Z" style="fill:white;fill-rule:nonzero;"/>
            </g>
            <g transform="matrix(6,0,0,6,23.9824,0)">
                <path d="M0.547,-0.269C0.547,-0.225 0.541,-0.185 0.53,-0.151C0.518,-0.116 0.502,-0.087 0.48,-0.063C0.459,-0.04 0.433,-0.022 0.403,-0.009C0.372,0.003 0.338,0.01 0.299,0.01C0.264,0.01 0.231,0.003 0.201,-0.009C0.171,-0.022 0.145,-0.04 0.124,-0.063C0.102,-0.087 0.085,-0.116 0.073,-0.151C0.062,-0.185 0.056,-0.225 0.056,-0.269C0.056,-0.327 0.066,-0.377 0.085,-0.418C0.105,-0.459 0.134,-0.491 0.171,-0.512C0.208,-0.534 0.252,-0.545 0.303,-0.545C0.352,-0.545 0.394,-0.534 0.431,-0.512C0.468,-0.49 0.496,-0.459 0.516,-0.418C0.537,-0.377 0.547,-0.327 0.547,-0.269ZM0.14,-0.269C0.14,-0.226 0.145,-0.188 0.157,-0.157C0.168,-0.125 0.186,-0.101 0.209,-0.083C0.233,-0.066 0.264,-0.058 0.301,-0.058C0.338,-0.058 0.369,-0.066 0.393,-0.083C0.417,-0.101 0.434,-0.125 0.446,-0.157C0.457,-0.188 0.463,-0.226 0.463,-0.269C0.463,-0.311 0.457,-0.348 0.446,-0.379C0.434,-0.41 0.417,-0.434 0.393,-0.451C0.369,-0.468 0.339,-0.477 0.301,-0.477C0.245,-0.477 0.204,-0.458 0.178,-0.421C0.153,-0.385 0.14,-0.334 0.14,-0.269Z" style="fill:white;fill-rule:nonzero;"/>
            </g>
            <g transform="matrix(6,0,0,6,27.5918,0)">
                <path d="M0.339,-0.545C0.402,-0.545 0.45,-0.529 0.483,-0.498C0.515,-0.467 0.532,-0.417 0.532,-0.349L0.532,-0L0.452,-0L0.452,-0.343C0.452,-0.388 0.441,-0.421 0.421,-0.443C0.401,-0.465 0.37,-0.477 0.328,-0.477C0.268,-0.477 0.227,-0.46 0.203,-0.426C0.179,-0.393 0.167,-0.344 0.167,-0.28L0.167,-0L0.085,-0L0.085,-0.535L0.151,-0.535L0.163,-0.458L0.167,-0.458C0.179,-0.477 0.193,-0.493 0.211,-0.506C0.229,-0.518 0.248,-0.528 0.27,-0.535C0.292,-0.542 0.315,-0.545 0.339,-0.545Z" style="fill:white;fill-rule:nonzero;"/>
            </g>
            <g transform="matrix(6,0,0,6,31.2715,0)">
                <path d="M0.286,-0.544C0.349,-0.544 0.397,-0.53 0.428,-0.501C0.459,-0.472 0.474,-0.427 0.474,-0.364L0.474,-0L0.415,-0L0.399,-0.079L0.396,-0.079C0.381,-0.06 0.365,-0.043 0.349,-0.03C0.332,-0.017 0.314,-0.007 0.292,-0C0.271,0.006 0.245,0.01 0.214,0.01C0.181,0.01 0.152,0.004 0.127,-0.007C0.102,-0.019 0.082,-0.036 0.068,-0.059C0.053,-0.082 0.046,-0.111 0.046,-0.147C0.046,-0.2 0.067,-0.241 0.109,-0.27C0.152,-0.299 0.216,-0.314 0.303,-0.317L0.395,-0.321L0.395,-0.354C0.395,-0.4 0.385,-0.432 0.365,-0.451C0.345,-0.469 0.317,-0.479 0.281,-0.479C0.253,-0.479 0.227,-0.474 0.201,-0.466C0.176,-0.458 0.152,-0.449 0.129,-0.438L0.104,-0.499C0.128,-0.511 0.156,-0.522 0.187,-0.531C0.218,-0.54 0.251,-0.544 0.286,-0.544ZM0.394,-0.264L0.313,-0.26C0.246,-0.258 0.199,-0.247 0.171,-0.228C0.144,-0.208 0.13,-0.181 0.13,-0.146C0.13,-0.115 0.14,-0.093 0.158,-0.078C0.177,-0.063 0.201,-0.056 0.232,-0.056C0.279,-0.056 0.318,-0.069 0.349,-0.096C0.379,-0.122 0.394,-0.162 0.394,-0.214L0.394,-0.264Z" style="fill:white;fill-rule:nonzero;"/>
            </g>
            <g transform="matrix(6,0,0,6,34.6055,0)">
                <rect x="0.085" y="-0.76" width="0.082" height="0.76" style="fill:white;"/>
            </g>
            <g transform="matrix(6,0,0,6,37.6787,0)">
                <rect x="0.098" y="-0.714" width="0.083" height="0.714" style="fill:white;"/>
            </g>
            <g transform="matrix(6,0,0,6,39.3545,0)">
                <path d="M0.339,-0.545C0.402,-0.545 0.45,-0.529 0.483,-0.498C0.515,-0.467 0.532,-0.417 0.532,-0.349L0.532,-0L0.452,-0L0.452,-0.343C0.452,-0.388 0.441,-0.421 0.421,-0.443C0.401,-0.465 0.37,-0.477 0.328,-0.477C0.268,-0.477 0.227,-0.46 0.203,-0.426C0.179,-0.393 0.167,-0.344 0.167,-0.28L0.167,-0L0.085,-0L0.085,-0.535L0.151,-0.535L0.163,-0.458L0.167,-0.458C0.179,-0.477 0.193,-0.493 0.211,-0.506C0.229,-0.518 0.248,-0.528 0.27,-0.535C0.292,-0.542 0.315,-0.545 0.339,-0.545Z" style="fill:white;fill-rule:nonzero;"/>
            </g>
            <g transform="matrix(6,0,0,6,43.0342,0)">
                <path d="M0.203,-0L0,-0.535L0.087,-0.535L0.205,-0.211C0.213,-0.189 0.221,-0.165 0.229,-0.138C0.238,-0.111 0.244,-0.09 0.247,-0.074L0.25,-0.074C0.254,-0.09 0.261,-0.112 0.27,-0.138C0.279,-0.165 0.287,-0.19 0.295,-0.211L0.413,-0.535L0.5,-0.535L0.296,-0L0.203,-0Z" style="fill:white;fill-rule:nonzero;"/>
            </g>
            <g transform="matrix(6,0,0,6,46.0312,0)">
                <path d="M0.292,-0.545C0.337,-0.545 0.376,-0.535 0.409,-0.515C0.441,-0.494 0.466,-0.466 0.483,-0.43C0.501,-0.394 0.509,-0.351 0.509,-0.303L0.509,-0.252L0.14,-0.252C0.141,-0.19 0.156,-0.142 0.187,-0.109C0.217,-0.076 0.259,-0.06 0.314,-0.06C0.348,-0.06 0.378,-0.063 0.404,-0.069C0.43,-0.075 0.457,-0.084 0.485,-0.096L0.485,-0.025C0.458,-0.013 0.432,-0.004 0.405,0.001C0.378,0.007 0.347,0.01 0.311,0.01C0.26,0.01 0.215,-0.001 0.177,-0.022C0.138,-0.043 0.109,-0.074 0.087,-0.114C0.066,-0.155 0.056,-0.205 0.056,-0.264C0.056,-0.321 0.065,-0.371 0.085,-0.413C0.104,-0.455 0.131,-0.488 0.167,-0.511C0.202,-0.534 0.244,-0.545 0.292,-0.545ZM0.291,-0.479C0.247,-0.479 0.213,-0.464 0.187,-0.436C0.161,-0.408 0.146,-0.368 0.141,-0.317L0.424,-0.317C0.424,-0.349 0.419,-0.377 0.409,-0.402C0.4,-0.426 0.385,-0.445 0.366,-0.458C0.346,-0.472 0.321,-0.479 0.291,-0.479Z" style="fill:white;fill-rule:nonzero;"/>
            </g>
            <g transform="matrix(6,0,0,6,49.4004,0)">
                <path d="M0.432,-0.146C0.432,-0.112 0.423,-0.084 0.406,-0.06C0.389,-0.037 0.365,-0.02 0.333,-0.008C0.301,0.004 0.263,0.01 0.219,0.01C0.182,0.01 0.149,0.007 0.122,0.001C0.095,-0.005 0.071,-0.013 0.05,-0.024L0.05,-0.099C0.072,-0.088 0.098,-0.078 0.128,-0.069C0.159,-0.061 0.19,-0.056 0.221,-0.056C0.267,-0.056 0.301,-0.064 0.322,-0.079C0.343,-0.094 0.353,-0.114 0.353,-0.14C0.353,-0.154 0.349,-0.167 0.341,-0.178C0.332,-0.19 0.318,-0.201 0.299,-0.211C0.279,-0.222 0.252,-0.233 0.218,-0.246C0.184,-0.259 0.154,-0.272 0.129,-0.285C0.104,-0.298 0.085,-0.313 0.072,-0.332C0.058,-0.351 0.051,-0.375 0.051,-0.404C0.051,-0.45 0.07,-0.484 0.106,-0.509C0.143,-0.533 0.191,-0.545 0.25,-0.545C0.283,-0.545 0.313,-0.542 0.341,-0.535C0.369,-0.529 0.396,-0.521 0.42,-0.51L0.393,-0.445C0.37,-0.454 0.347,-0.462 0.322,-0.469C0.297,-0.475 0.271,-0.479 0.245,-0.479C0.208,-0.479 0.179,-0.472 0.159,-0.46C0.139,-0.448 0.129,-0.431 0.129,-0.409C0.129,-0.393 0.134,-0.379 0.143,-0.368C0.152,-0.357 0.167,-0.347 0.188,-0.338C0.208,-0.328 0.235,-0.317 0.269,-0.305C0.302,-0.292 0.331,-0.28 0.355,-0.266C0.38,-0.253 0.399,-0.237 0.412,-0.219C0.425,-0.2 0.432,-0.176 0.432,-0.146Z" style="fill:white;fill-rule:nonzero;"/>
            </g>
            <g transform="matrix(6,0,0,6,52.2598,0)">
                <path d="M0.258,-0.057C0.272,-0.057 0.285,-0.058 0.299,-0.06C0.313,-0.062 0.325,-0.065 0.333,-0.068L0.333,-0.005C0.324,-0.001 0.311,0.002 0.294,0.005C0.277,0.008 0.261,0.01 0.245,0.01C0.217,0.01 0.191,0.005 0.168,-0.005C0.145,-0.015 0.126,-0.032 0.113,-0.056C0.099,-0.079 0.092,-0.112 0.092,-0.154L0.092,-0.472L0.016,-0.472L0.016,-0.511L0.092,-0.543L0.125,-0.659L0.173,-0.659L0.173,-0.535L0.33,-0.535L0.33,-0.472L0.173,-0.472L0.173,-0.157C0.173,-0.123 0.181,-0.098 0.197,-0.082C0.212,-0.065 0.233,-0.057 0.258,-0.057Z" style="fill:white;fill-rule:nonzero;"/>
            </g>
            <g transform="matrix(6,0,0,6,54.3984,0)">
                <path d="M0.667,-0.545C0.725,-0.545 0.77,-0.53 0.8,-0.499C0.83,-0.468 0.845,-0.419 0.845,-0.351L0.845,-0L0.765,-0L0.765,-0.347C0.765,-0.39 0.755,-0.422 0.737,-0.444C0.718,-0.466 0.69,-0.477 0.653,-0.477C0.602,-0.477 0.564,-0.462 0.541,-0.432C0.517,-0.402 0.505,-0.358 0.505,-0.299L0.505,-0L0.425,-0L0.425,-0.347C0.425,-0.376 0.421,-0.4 0.412,-0.419C0.404,-0.438 0.392,-0.453 0.375,-0.462C0.359,-0.472 0.338,-0.477 0.313,-0.477C0.278,-0.477 0.249,-0.469 0.228,-0.455C0.206,-0.44 0.191,-0.418 0.181,-0.389C0.171,-0.361 0.167,-0.325 0.167,-0.283L0.167,-0L0.085,-0L0.085,-0.535L0.151,-0.535L0.163,-0.459L0.167,-0.459C0.178,-0.478 0.192,-0.494 0.208,-0.506C0.224,-0.519 0.243,-0.529 0.263,-0.535C0.283,-0.542 0.304,-0.545 0.327,-0.545C0.368,-0.545 0.402,-0.537 0.429,-0.522C0.457,-0.507 0.477,-0.484 0.489,-0.453L0.494,-0.453C0.511,-0.484 0.535,-0.507 0.566,-0.522C0.597,-0.537 0.63,-0.545 0.667,-0.545Z" style="fill:white;fill-rule:nonzero;"/>
            </g>
            <g transform="matrix(6,0,0,6,59.9531,0)">
                <path d="M0.292,-0.545C0.337,-0.545 0.376,-0.535 0.409,-0.515C0.441,-0.494 0.466,-0.466 0.483,-0.43C0.501,-0.394 0.509,-0.351 0.509,-0.303L0.509,-0.252L0.14,-0.252C0.141,-0.19 0.156,-0.142 0.187,-0.109C0.217,-0.076 0.259,-0.06 0.314,-0.06C0.348,-0.06 0.378,-0.063 0.404,-0.069C0.43,-0.075 0.457,-0.084 0.485,-0.096L0.485,-0.025C0.458,-0.013 0.432,-0.004 0.405,0.001C0.378,0.007 0.347,0.01 0.311,0.01C0.26,0.01 0.215,-0.001 0.177,-0.022C0.138,-0.043 0.109,-0.074 0.087,-0.114C0.066,-0.155 0.056,-0.205 0.056,-0.264C0.056,-0.321 0.065,-0.371 0.085,-0.413C0.104,-0.455 0.131,-0.488 0.167,-0.511C0.202,-0.534 0.244,-0.545 0.292,-0.545ZM0.291,-0.479C0.247,-0.479 0.213,-0.464 0.187,-0.436C0.161,-0.408 0.146,-0.368 0.141,-0.317L0.424,-0.317C0.424,-0.349 0.419,-0.377 0.409,-0.402C0.4,-0.426 0.385,-0.445 0.366,-0.458C0.346,-0.472 0.321,-0.479 0.291,-0.479Z" style="fill:white;fill-rule:nonzero;"/>
            </g>
            <g transform="matrix(6,0,0,6,63.3223,0)">
                <path d="M0.339,-0.545C0.402,-0.545 0.45,-0.529 0.483,-0.498C0.515,-0.467 0.532,-0.417 0.532,-0.349L0.532,-0L0.452,-0L0.452,-0.343C0.452,-0.388 0.441,-0.421 0.421,-0.443C0.401,-0.465 0.37,-0.477 0.328,-0.477C0.268,-0.477 0.227,-0.46 0.203,-0.426C0.179,-0.393 0.167,-0.344 0.167,-0.28L0.167,-0L0.085,-0L0.085,-0.535L0.151,-0.535L0.163,-0.458L0.167,-0.458C0.179,-0.477 0.193,-0.493 0.211,-0.506C0.229,-0.518 0.248,-0.528 0.27,-0.535C0.292,-0.542 0.315,-0.545 0.339,-0.545Z" style="fill:white;fill-rule:nonzero;"/>
            </g>
            <g transform="matrix(6,0,0,6,67.002,0)">
                <path d="M0.258,-0.057C0.272,-0.057 0.285,-0.058 0.299,-0.06C0.313,-0.062 0.325,-0.065 0.333,-0.068L0.333,-0.005C0.324,-0.001 0.311,0.002 0.294,0.005C0.277,0.008 0.261,0.01 0.245,0.01C0.217,0.01 0.191,0.005 0.168,-0.005C0.145,-0.015 0.126,-0.032 0.113,-0.056C0.099,-0.079 0.092,-0.112 0.092,-0.154L0.092,-0.472L0.016,-0.472L0.016,-0.511L0.092,-0.543L0.125,-0.659L0.173,-0.659L0.173,-0.535L0.33,-0.535L0.33,-0.472L0.173,-0.472L0.173,-0.157C0.173,-0.123 0.181,-0.098 0.197,-0.082C0.212,-0.065 0.233,-0.057 0.258,-0.057Z" style="fill:white;fill-rule:nonzero;"/>
            </g>
            <g transform="matrix(6,0,0,6,70.6992,0)">
                <path d="M0.403,-0.651C0.363,-0.651 0.328,-0.644 0.297,-0.631C0.265,-0.617 0.239,-0.598 0.217,-0.572C0.195,-0.546 0.178,-0.516 0.166,-0.479C0.154,-0.443 0.148,-0.403 0.148,-0.357C0.148,-0.298 0.158,-0.246 0.177,-0.201C0.195,-0.157 0.223,-0.123 0.26,-0.099C0.298,-0.075 0.344,-0.063 0.4,-0.063C0.432,-0.063 0.462,-0.066 0.49,-0.071C0.519,-0.076 0.546,-0.083 0.573,-0.091L0.573,-0.019C0.547,-0.009 0.519,-0.002 0.491,0.003C0.462,0.007 0.428,0.01 0.389,0.01C0.316,0.01 0.255,-0.005 0.207,-0.035C0.158,-0.066 0.122,-0.108 0.097,-0.163C0.073,-0.218 0.061,-0.283 0.061,-0.358C0.061,-0.412 0.069,-0.461 0.084,-0.506C0.099,-0.551 0.121,-0.59 0.15,-0.622C0.179,-0.655 0.215,-0.68 0.258,-0.698C0.3,-0.715 0.349,-0.724 0.404,-0.724C0.44,-0.724 0.475,-0.721 0.508,-0.713C0.542,-0.706 0.572,-0.696 0.599,-0.683L0.566,-0.612C0.543,-0.623 0.518,-0.632 0.491,-0.639C0.464,-0.647 0.434,-0.651 0.403,-0.651Z" style="fill:white;fill-rule:nonzero;"/>
            </g>
            <g transform="matrix(6,0,0,6,74.4785,0)">
                <path d="M0.547,-0.269C0.547,-0.225 0.541,-0.185 0.53,-0.151C0.518,-0.116 0.502,-0.087 0.48,-0.063C0.459,-0.04 0.433,-0.022 0.403,-0.009C0.372,0.003 0.338,0.01 0.299,0.01C0.264,0.01 0.231,0.003 0.201,-0.009C0.171,-0.022 0.145,-0.04 0.124,-0.063C0.102,-0.087 0.085,-0.116 0.073,-0.151C0.062,-0.185 0.056,-0.225 0.056,-0.269C0.056,-0.327 0.066,-0.377 0.085,-0.418C0.105,-0.459 0.134,-0.491 0.171,-0.512C0.208,-0.534 0.252,-0.545 0.303,-0.545C0.352,-0.545 0.394,-0.534 0.431,-0.512C0.468,-0.49 0.496,-0.459 0.516,-0.418C0.537,-0.377 0.547,-0.327 0.547,-0.269ZM0.14,-0.269C0.14,-0.226 0.145,-0.188 0.157,-0.157C0.168,-0.125 0.186,-0.101 0.209,-0.083C0.233,-0.066 0.264,-0.058 0.301,-0.058C0.338,-0.058 0.369,-0.066 0.393,-0.083C0.417,-0.101 0.434,-0.125 0.446,-0.157C0.457,-0.188 0.463,-0.226 0.463,-0.269C0.463,-0.311 0.457,-0.348 0.446,-0.379C0.434,-0.41 0.417,-0.434 0.393,-0.451C0.369,-0.468 0.339,-0.477 0.301,-0.477C0.245,-0.477 0.204,-0.458 0.178,-0.421C0.153,-0.385 0.14,-0.334 0.14,-0.269Z" style="fill:white;fill-rule:nonzero;"/>
            </g>
            <g transform="matrix(6,0,0,6,78.0879,0)">
                <path d="M0.667,-0.545C0.725,-0.545 0.77,-0.53 0.8,-0.499C0.83,-0.468 0.845,-0.419 0.845,-0.351L0.845,-0L0.765,-0L0.765,-0.347C0.765,-0.39 0.755,-0.422 0.737,-0.444C0.718,-0.466 0.69,-0.477 0.653,-0.477C0.602,-0.477 0.564,-0.462 0.541,-0.432C0.517,-0.402 0.505,-0.358 0.505,-0.299L0.505,-0L0.425,-0L0.425,-0.347C0.425,-0.376 0.421,-0.4 0.412,-0.419C0.404,-0.438 0.392,-0.453 0.375,-0.462C0.359,-0.472 0.338,-0.477 0.313,-0.477C0.278,-0.477 0.249,-0.469 0.228,-0.455C0.206,-0.44 0.191,-0.418 0.181,-0.389C0.171,-0.361 0.167,-0.325 0.167,-0.283L0.167,-0L0.085,-0L0.085,-0.535L0.151,-0.535L0.163,-0.459L0.167,-0.459C0.178,-0.478 0.192,-0.494 0.208,-0.506C0.224,-0.519 0.243,-0.529 0.263,-0.535C0.283,-0.542 0.304,-0.545 0.327,-0.545C0.368,-0.545 0.402,-0.537 0.429,-0.522C0.457,-0.507 0.477,-0.484 0.489,-0.453L0.494,-0.453C0.511,-0.484 0.535,-0.507 0.566,-0.522C0.597,-0.537 0.63,-0.545 0.667,-0.545Z" style="fill:white;fill-rule:nonzero;"/>
            </g>
            <g transform="matrix(6,0,0,6,83.6426,0)">
                <path d="M0.337,-0.545C0.404,-0.545 0.457,-0.522 0.497,-0.476C0.536,-0.43 0.556,-0.361 0.556,-0.269C0.556,-0.208 0.547,-0.157 0.529,-0.116C0.511,-0.074 0.485,-0.043 0.452,-0.022C0.419,-0.001 0.38,0.01 0.335,0.01C0.307,0.01 0.282,0.006 0.26,-0.001C0.239,-0.009 0.22,-0.019 0.205,-0.032C0.19,-0.044 0.177,-0.058 0.167,-0.073L0.161,-0.073C0.162,-0.061 0.163,-0.045 0.165,-0.027C0.166,-0.009 0.167,0.006 0.167,0.02L0.167,0.239L0.085,0.239L0.085,-0.535L0.152,-0.535L0.163,-0.456L0.167,-0.456C0.177,-0.472 0.19,-0.487 0.205,-0.501C0.22,-0.514 0.238,-0.525 0.26,-0.533C0.282,-0.541 0.307,-0.545 0.337,-0.545ZM0.323,-0.477C0.286,-0.477 0.256,-0.469 0.233,-0.455C0.211,-0.441 0.194,-0.419 0.184,-0.391C0.173,-0.362 0.168,-0.327 0.167,-0.284L0.167,-0.268C0.167,-0.223 0.172,-0.185 0.182,-0.153C0.192,-0.122 0.208,-0.098 0.231,-0.082C0.254,-0.066 0.285,-0.058 0.324,-0.058C0.357,-0.058 0.385,-0.067 0.407,-0.084C0.429,-0.102 0.445,-0.127 0.456,-0.159C0.467,-0.191 0.473,-0.228 0.473,-0.27C0.473,-0.333 0.46,-0.383 0.436,-0.421C0.411,-0.458 0.374,-0.477 0.323,-0.477Z" style="fill:white;fill-rule:nonzero;"/>
            </g>
            <g transform="matrix(6,0,0,6,87.3135,0)">
                <path d="M0.286,-0.544C0.349,-0.544 0.397,-0.53 0.428,-0.501C0.459,-0.472 0.474,-0.427 0.474,-0.364L0.474,-0L0.415,-0L0.399,-0.079L0.396,-0.079C0.381,-0.06 0.365,-0.043 0.349,-0.03C0.332,-0.017 0.314,-0.007 0.292,-0C0.271,0.006 0.245,0.01 0.214,0.01C0.181,0.01 0.152,0.004 0.127,-0.007C0.102,-0.019 0.082,-0.036 0.068,-0.059C0.053,-0.082 0.046,-0.111 0.046,-0.147C0.046,-0.2 0.067,-0.241 0.109,-0.27C0.152,-0.299 0.216,-0.314 0.303,-0.317L0.395,-0.321L0.395,-0.354C0.395,-0.4 0.385,-0.432 0.365,-0.451C0.345,-0.469 0.317,-0.479 0.281,-0.479C0.253,-0.479 0.227,-0.474 0.201,-0.466C0.176,-0.458 0.152,-0.449 0.129,-0.438L0.104,-0.499C0.128,-0.511 0.156,-0.522 0.187,-0.531C0.218,-0.54 0.251,-0.544 0.286,-0.544ZM0.394,-0.264L0.313,-0.26C0.246,-0.258 0.199,-0.247 0.171,-0.228C0.144,-0.208 0.13,-0.181 0.13,-0.146C0.13,-0.115 0.14,-0.093 0.158,-0.078C0.177,-0.063 0.201,-0.056 0.232,-0.056C0.279,-0.056 0.318,-0.069 0.349,-0.096C0.379,-0.122 0.394,-0.162 0.394,-0.214L0.394,-0.264Z" style="fill:white;fill-rule:nonzero;"/>
            </g>
            <g transform="matrix(6,0,0,6,90.6475,0)">
                <path d="M0.339,-0.545C0.402,-0.545 0.45,-0.529 0.483,-0.498C0.515,-0.467 0.532,-0.417 0.532,-0.349L0.532,-0L0.452,-0L0.452,-0.343C0.452,-0.388 0.441,-0.421 0.421,-0.443C0.401,-0.465 0.37,-0.477 0.328,-0.477C0.268,-0.477 0.227,-0.46 0.203,-0.426C0.179,-0.393 0.167,-0.344 0.167,-0.28L0.167,-0L0.085,-0L0.085,-0.535L0.151,-0.535L0.163,-0.458L0.167,-0.458C0.179,-0.477 0.193,-0.493 0.211,-0.506C0.229,-0.518 0.248,-0.528 0.27,-0.535C0.292,-0.542 0.315,-0.545 0.339,-0.545Z" style="fill:white;fill-rule:nonzero;"/>
            </g>
            <g transform="matrix(6,0,0,6,94.3271,0)">
                <path d="M0.001,-0.535L0.088,-0.535L0.206,-0.225C0.213,-0.206 0.219,-0.189 0.225,-0.172C0.231,-0.155 0.236,-0.139 0.241,-0.124C0.245,-0.109 0.249,-0.094 0.251,-0.08L0.255,-0.08C0.259,-0.096 0.266,-0.117 0.274,-0.144C0.283,-0.17 0.292,-0.197 0.302,-0.225L0.414,-0.535L0.501,-0.535L0.268,0.079C0.256,0.111 0.241,0.14 0.225,0.165C0.208,0.189 0.188,0.208 0.165,0.221C0.142,0.234 0.113,0.241 0.08,0.241C0.065,0.241 0.051,0.24 0.04,0.238C0.028,0.236 0.018,0.234 0.009,0.232L0.009,0.167C0.016,0.169 0.025,0.17 0.035,0.171C0.046,0.173 0.056,0.173 0.067,0.173C0.088,0.173 0.105,0.17 0.12,0.162C0.135,0.154 0.147,0.143 0.158,0.128C0.169,0.114 0.178,0.096 0.186,0.076L0.215,0.001L0.001,-0.535Z" style="fill:white;fill-rule:nonzero;"/>
            </g>
        </g>
    </g>
</svg>
