<?xml version="1.0" encoding="UTF-8" standalone="no"?>
<!DOCTYPE svg PUBLIC "-//W3C//DTD SVG 1.1//EN" "http://www.w3.org/Graphics/SVG/1.1/DTD/svg11.dtd">
<svg width="100%" height="100%" viewBox="0 0 200 90" version="1.1" xmlns="http://www.w3.org/2000/svg" xmlns:xlink="http://www.w3.org/1999/xlink" xml:space="preserve" xmlns:serif="http://www.serif.com/" style="fill-rule:evenodd;clip-rule:evenodd;stroke-linejoin:round;stroke-miterlimit:2;">
    <g transform="matrix(0.415759,0,0,0.415759,10.2113,12.4671)">
        <g id="JČU">
            <path d="M420.195,79.979C421.879,79.979 422.972,79.731 423.479,79.262C424.015,78.767 424.444,77.72 424.818,76.094L426.927,76.013L426.927,99.655L424.818,99.655C424.498,98.057 424.043,96.955 423.403,96.403C422.787,95.827 421.717,95.549 420.195,95.549L344.982,95.549L344.982,93.372C346.641,92.931 347.735,92.409 348.216,91.803C348.723,91.168 348.965,90.12 348.965,88.605L348.965,15.717C348.965,14.092 348.696,12.988 348.189,12.354C347.656,11.748 346.586,11.251 344.982,10.866L344.982,8.771L371.408,8.771L371.408,10.866C369.859,11.252 368.79,11.748 368.254,12.354C367.694,12.988 367.427,14.091 367.427,15.717L367.427,79.979L420.195,79.979ZM312.093,79.979C313.777,79.979 314.872,79.731 315.433,79.208C315.966,78.684 316.422,77.637 316.797,76.013L318.827,76.013L318.827,99.655L316.797,99.655C316.422,98.057 315.942,96.955 315.354,96.403C314.74,95.827 313.67,95.549 312.093,95.549L235.626,95.549L235.626,93.372C237.282,92.931 238.377,92.409 238.858,91.803C239.365,91.168 239.607,90.12 239.607,88.605L239.607,15.717C239.607,14.092 239.34,12.988 238.834,12.354C238.298,11.748 237.229,11.251 235.626,10.866L235.626,8.771L311.158,8.771C312.787,8.771 313.856,8.497 314.419,7.974C314.951,7.423 315.406,6.319 315.779,4.666L317.891,4.666L317.891,28.256L315.779,28.256C315.459,26.682 315.033,25.637 314.444,25.086C313.882,24.564 312.975,24.289 311.798,24.289L258.068,24.289L258.068,43.329L291.894,43.329C293.575,43.329 294.671,43.081 295.18,42.613C295.713,42.118 296.167,41.041 296.595,39.362L298.626,39.362L298.626,61.353L296.595,61.353C296.274,59.782 295.82,58.735 295.233,58.183C294.618,57.66 293.521,57.383 291.894,57.383L258.068,57.383L258.068,79.981L312.093,79.981L312.093,79.979ZM170.861,23.625L145.504,23.625L145.504,47.435L171.502,47.435C179.169,47.435 184.647,46.471 187.907,44.57C191.166,42.669 192.796,39.527 192.796,35.173C192.796,30.984 191.192,28.009 188.012,26.246C184.836,24.507 179.115,23.625 170.861,23.625ZM123.061,95.548L123.061,93.371C124.665,93.04 125.735,92.573 126.267,91.911C126.775,91.279 127.043,90.175 127.043,88.604L127.043,15.717C127.043,14.201 126.802,13.126 126.294,12.493C125.813,11.831 124.718,11.308 123.061,10.866L123.061,8.771L175.963,8.771C186.921,8.771 195.415,10.977 201.481,15.386C207.546,19.796 210.565,25.968 210.565,33.877C210.565,40.38 208.695,45.752 204.954,49.97C201.239,54.215 195.469,57.382 187.694,59.532L205.487,85.132C206.529,86.703 207.705,88.052 209.041,89.21C210.378,90.369 212.514,91.746 215.426,93.371L215.426,95.548L184.487,95.548L184.487,93.371C185.637,93.208 186.518,92.874 187.106,92.408C187.72,91.91 188.013,91.332 188.013,90.616C188.013,90.478 187.8,89.926 187.4,89.017C186.971,88.108 186.518,87.281 186.061,86.591L168.429,60.028L145.504,60.028L145.504,88.604C145.504,90.229 145.746,91.332 146.253,91.911C146.735,92.517 147.829,92.987 149.485,93.371L149.485,95.548L123.061,95.548ZM54.938,60.631C56.7,57.396 56.378,56.165 54.453,55.918C52.974,55.725 50.418,55.845 47.088,56.535C41.789,57.621 35.986,59.433 30.765,62.036C28.031,63.401 25.453,64.978 23.196,66.784C24.562,64.519 26.783,61.192 29.493,57.462C33.721,51.646 39.14,44.846 44.374,39.561C48.342,35.552 52.407,30.87 58.731,27.883C62.457,26.124 65.962,26.68 61.408,34.462C58.705,39.073 58.865,42.849 59.12,44.347C59.274,45.24 60.519,43.147 62.782,40.166C64.907,37.368 68.465,32.932 71.082,30.755C71.686,30.257 71.573,31.303 72.121,30.892C73.014,30.225 72.659,29.133 74.897,28.224C74.328,29.762 70.544,35.303 70.223,39.031C69.535,46.984 74.948,41.314 81.178,39.908C88.434,38.589 88.436,44.914 86.12,52.338L87.397,52.948C89.974,44.492 89.924,37.136 82.361,38.256C74.528,39.301 70.371,45.188 71.756,37.524C72.421,33.84 75.443,28.829 76.219,27.432C67.869,25.981 60.829,43.139 60.444,40.897C60.188,39.399 61.263,36.384 63.777,31.658C67.917,23.878 59.304,24.452 54.096,28.57C47.093,34.11 44.38,37.21 40.413,41.62C36.905,45.524 32.798,50.444 29.245,55.161C29.238,53.971 29.307,52.764 29.307,51.539C29.307,42.775 32.112,35.694 37.723,30.267C43.308,24.865 50.709,22.163 59.873,22.163C69.199,22.163 76.679,24.865 82.316,30.237C87.955,35.612 90.76,42.721 90.76,51.54C90.76,60.332 87.955,67.413 82.344,72.788C76.759,78.16 69.303,80.862 60.035,80.862C50.709,80.862 43.261,78.18 37.671,72.814C34.826,70.08 32.703,66.904 31.277,63.361C34.907,61.579 38.76,59.997 42.769,58.618C50.544,56.661 54.498,57.051 54.327,58.353C53.82,62.175 43.328,72.203 40.669,75.305C47.238,71.767 59.289,68.549 65.72,70.636C63.573,66.546 62.883,61.297 64.368,58.552L63.14,58.534C62.083,61.155 62.31,64.681 63.85,69.111C57.702,68.382 52.214,69.259 45.127,72.43C48.615,68.36 52.343,65.236 55.041,60.484L54.938,60.631ZM59.872,7.229C74.114,7.229 85.789,11.471 94.928,19.933C104.039,28.421 108.608,39.113 108.608,52.035C108.608,64.96 104.014,75.68 94.848,84.223C85.657,92.738 74.007,97.011 59.872,97.011C45.955,97.011 34.41,92.711 25.219,84.14C16.055,75.542 11.46,64.852 11.46,52.035C11.46,39.168 16.001,28.505 25.111,19.988C34.197,11.472 45.792,7.229 59.872,7.229ZM20.466,125.321C17.59,125.321 14.995,126.22 12.683,128.027C9.961,130.137 8.597,132.934 8.597,136.403C8.597,139.781 9.731,142.517 11.999,144.61C14.267,146.708 17.154,147.752 20.664,147.752C22.889,147.752 25.013,147.245 27.04,146.233C29.266,145.131 30.758,143.984 31.521,142.794L30.736,141.815L31.258,141.41L34.724,145.898L34.137,146.302L33.483,145.459C32.96,145.909 32.447,146.357 31.945,146.809C30.593,147.841 29.111,148.685 27.499,149.337C25.209,150.258 22.843,150.719 20.399,150.719C15.537,150.719 11.712,149.348 8.92,146.603C6.308,144.02 5,140.669 5,136.555C5,132.461 6.581,129.044 9.743,126.3C12.794,123.648 16.478,122.32 20.795,122.32C23.108,122.32 25.308,122.67 27.402,123.365C29.844,124.176 31.489,125.018 32.34,125.895L32.994,124.886L33.549,125.221L30.704,130.147L30.117,129.774L30.737,128.727C29.778,127.918 28.677,127.233 27.433,126.671C25.45,125.771 23.39,125.321 21.253,125.321L20.466,125.321ZM21.221,120.77L13.731,113.347L17.066,113.347L21.285,117.154L25.537,113.347L28.938,113.347L21.221,120.77ZM40.843,137.733L40.843,147.281L59.416,147.281L59.416,146.098L60.072,146.098L60.072,151.833L59.416,151.833L59.416,150.651L36.427,150.651L36.427,149.91L37.638,149.91L37.638,123.297L36.427,123.297L36.427,122.657L59.416,122.657L59.416,121.409L60.072,121.409L60.072,127.142L59.416,127.142L59.416,125.928L40.843,125.928L40.843,134.427L53.433,134.427L53.433,133.246L54.119,133.246L54.119,138.98L53.433,138.98L53.433,137.733L40.843,137.733ZM62.753,129.303C63.429,126.76 65.152,124.873 67.92,123.635C70.056,122.669 72.488,122.185 75.213,122.185C76.761,122.185 78.157,122.316 79.398,122.575C80.642,122.833 81.876,123.199 83.093,123.67C83.225,123.716 84.447,124.256 86.757,125.289L87.346,124.244L87.903,124.547L85.219,129.639L84.664,129.304L85.219,128.258C84.543,127.56 83.128,126.853 80.97,126.135C79.16,125.523 77.317,125.222 75.441,125.222C72.738,125.222 70.513,125.627 68.769,126.435C66.698,127.403 65.663,128.798 65.663,130.619L65.663,130.821C65.663,132.419 66.802,133.519 69.076,134.13C70.651,134.554 72.891,134.769 75.798,134.769C78.99,134.769 81.449,135.004 83.176,135.478C84.578,135.859 85.661,136.433 86.425,137.199C87.035,137.85 87.505,138.536 87.819,139.255C88.138,139.974 88.296,140.762 88.296,141.617C88.296,144.653 86.827,147.001 83.902,148.665C81.41,150.083 78.415,150.791 74.92,150.791C73.083,150.791 71.464,150.599 70.069,150.218C68.994,149.925 67.775,149.413 66.411,148.683C65.042,147.953 63.743,147.228 62.493,146.508L61.805,147.687L61.217,147.351L63.965,142.36L64.52,142.698L63.965,143.742C64.116,143.944 64.696,144.349 65.703,144.958C67.01,145.743 68.375,146.396 69.797,146.914C71.714,147.61 73.487,147.957 75.099,147.957C77.677,147.957 79.929,147.465 81.849,146.474C83.773,145.485 84.819,144.26 84.993,142.798L84.993,142.124C84.993,140.437 84.001,139.292 82.018,138.683C80.556,138.233 78.202,138.008 74.954,138.008C73.164,138.008 71.488,137.862 69.917,137.57C68.346,137.278 66.999,136.872 65.876,136.355C64.754,135.839 63.909,135.112 63.343,134.18C62.777,133.245 62.492,132.218 62.492,131.092C62.537,130.599 62.569,130.255 62.591,130.066C62.612,129.87 62.666,129.617 62.753,129.303ZM102.972,132.973L115.569,149.844L116.847,149.844L116.847,150.585L110.565,150.585L110.565,149.844L111.551,149.838L100.492,134.97L94.605,139.775L94.605,149.844L95.751,149.844L95.751,150.585L90.193,150.585L90.193,149.844L91.37,149.844L91.37,123.23L90.193,123.23L90.193,122.589L95.751,122.589L95.751,123.23L94.605,123.23L94.605,136.151L110.14,123.23L109.159,123.23L109.159,122.589L115.996,122.589L115.996,123.23L114.588,123.23L102.972,132.973ZM123.09,137.733L123.09,147.281L141.667,147.281L141.667,146.098L142.321,146.098L142.321,151.833L141.667,151.833L141.667,150.651L118.678,150.651L118.678,149.91L119.885,149.91L119.885,123.297L118.678,123.297L118.678,122.657L141.667,122.657L141.667,121.409L142.321,121.409L142.321,127.142L141.667,127.142L141.667,125.928L123.09,125.928L123.09,134.427L135.683,134.427L135.683,133.246L136.369,133.246L136.369,138.98L135.683,138.98L135.683,137.733L123.09,137.733ZM130.417,120.801L132.837,113.482L136.468,113.482L131.593,120.801L130.417,120.801ZM183.232,137.666L172.046,137.666L172.046,147.145L183.363,147.145C184.91,147.145 186.024,147.017 186.698,146.759C187.376,146.5 187.904,146.117 188.285,145.612C188.664,145.106 188.96,144.571 189.166,144.009C189.375,143.447 189.479,142.918 189.479,142.424C189.479,140.78 188.801,139.546 187.449,138.712C186.318,138.016 184.912,137.666 183.232,137.666ZM184.313,125.828L172.047,125.828L172.047,134.362L183.789,134.362C184.683,134.362 185.397,134.294 185.932,134.159C186.467,134.024 186.973,133.761 187.452,133.366C187.933,132.972 188.297,132.478 188.547,131.881C188.798,131.285 188.922,130.629 188.922,129.908C188.922,128.56 188.488,127.542 187.614,126.857C186.744,126.17 185.643,125.828 184.313,125.828ZM182.382,150.518L167.569,150.518L167.569,149.809L168.778,149.809L168.778,123.23L167.569,123.23L167.569,122.523L183.429,122.523C184.672,122.523 185.681,122.589 186.454,122.725C187.229,122.86 188.051,123.187 188.922,123.704C189.949,124.355 190.755,125.232 191.345,126.336C191.932,127.439 192.227,128.629 192.227,129.909C192.227,130.584 192.161,131.215 192.032,131.798C191.9,132.385 191.671,132.969 191.344,133.553C191.014,134.139 190.483,134.711 189.74,135.274C189.499,135.454 189.161,135.678 188.727,135.949C189.142,136.107 189.467,136.251 189.706,136.387C190.469,136.836 191.168,137.465 191.799,138.277C192.65,139.423 193.075,140.873 193.075,142.627C193.075,143.729 192.899,144.771 192.552,145.746C192.203,146.726 191.734,147.507 191.146,148.091C190.121,149.104 188.801,149.789 187.188,150.15C186.055,150.394 184.454,150.518 182.382,150.518ZM217.407,148.291C216.712,148.989 215.418,149.591 213.532,150.097C211.645,150.603 209.613,150.854 207.432,150.854C205.557,150.854 203.868,150.63 202.365,150.182C200.641,149.662 199.246,148.877 198.178,147.82C197.415,147.08 196.903,146.234 196.639,145.291C196.378,144.347 196.247,143.213 196.247,141.884L196.247,123.231L195.038,123.231L195.038,122.59L200.599,122.59L200.599,123.231L199.454,123.231L199.454,141.751C199.454,142.852 199.59,143.795 199.861,144.584C200.136,145.371 200.653,145.999 201.415,146.472C202.179,146.945 203.155,147.322 204.344,147.604C205.532,147.884 206.778,148.026 208.088,148.026C209.591,148.026 210.967,147.869 212.208,147.552C213.45,147.238 214.389,146.816 215.021,146.286C215.653,145.757 216.1,145.088 216.361,144.28C216.556,143.649 216.656,142.806 216.656,141.751L216.656,123.231L215.412,123.231L215.412,122.59L220.973,122.59L220.973,123.231L219.827,123.231L219.827,141.681C219.827,143.077 219.685,144.223 219.404,145.122C219.033,146.291 218.367,147.348 217.407,148.291ZM247.298,125.76C248.432,126.932 249.288,128.415 249.866,130.212C250.443,132.013 250.733,133.968 250.733,136.083C250.733,138.083 250.472,139.956 249.949,141.697C249.426,143.439 248.641,144.93 247.594,146.169C246.221,147.808 244.737,148.955 243.148,149.607C241.554,150.258 239.505,150.585 236.998,150.585L222.936,150.585L222.936,149.844L224.181,149.844L224.181,123.298L222.936,123.298L222.936,122.589L238.013,122.589C239.844,122.589 241.414,122.771 242.721,123.13C244.552,123.624 246.079,124.502 247.298,125.76ZM244.912,128.525C244.103,127.514 243.124,126.839 241.969,126.502C240.813,126.163 239.243,125.999 237.259,125.999L227.35,125.999L227.35,147.281L237.13,147.281C239.135,147.281 240.782,146.998 242.067,146.438C243.354,145.875 244.411,144.954 245.239,143.67C245.894,142.68 246.388,141.541 246.727,140.245C247.066,138.954 247.233,137.678 247.233,136.42C247.233,134.844 247.022,133.353 246.596,131.951C246.171,130.545 245.608,129.404 244.912,128.525ZM257.241,137.733L257.241,147.281L275.817,147.281L275.817,146.098L276.471,146.098L276.471,151.833L275.817,151.833L275.817,150.651L252.827,150.651L252.827,149.91L254.036,149.91L254.036,123.297L252.827,123.297L252.827,122.657L275.817,122.657L275.817,121.409L276.471,121.409L276.471,127.142L275.817,127.142L275.817,125.928L257.241,125.928L257.241,134.427L269.831,134.427L269.831,133.246L270.519,133.246L270.519,138.98L269.831,138.98L269.831,137.733L257.241,137.733ZM266.299,120.77L258.811,113.347L262.146,113.347L266.366,117.154L270.618,113.347L274.019,113.347L266.299,120.77ZM293.183,141.95L293.183,123.229L291.972,123.229L291.972,122.588L297.533,122.588L297.533,123.229L296.388,123.229L296.388,142.356C296.388,143.502 296.323,144.352 296.192,144.902C296.061,145.453 295.852,146.033 295.569,146.638C294.873,148.032 293.76,149.101 292.235,149.843C290.839,150.517 289.247,150.853 287.461,150.853C286.043,150.853 284.18,150.429 281.868,149.574C281.105,149.303 280.091,148.877 278.828,148.291L278.367,149.403L277.746,149.068L279.972,143.806L280.56,144.076L280.101,145.324C280.32,145.548 281.213,145.986 282.783,146.638C284.703,147.424 286.219,147.819 287.33,147.819C289.4,147.819 290.862,147.436 291.713,146.673C292.692,145.795 293.183,144.222 293.183,141.95ZM315.028,122.117C319.586,122.117 323.339,123.45 326.294,126.112C329.248,128.777 330.726,132.236 330.726,136.485C330.726,140.738 329.248,144.194 326.294,146.859C323.339,149.523 319.586,150.853 315.028,150.853C310.492,150.853 306.737,149.455 303.76,146.654C300.783,143.856 299.296,140.466 299.296,136.485C299.296,132.483 300.789,129.089 303.777,126.299C306.766,123.511 310.514,122.117 315.028,122.117ZM315.028,124.95C311.234,124.95 308.224,126.088 306.001,128.358C303.93,130.47 302.896,133.18 302.896,136.485C302.896,139.791 303.963,142.511 306.102,144.65C308.346,146.897 311.321,148.023 315.029,148.023C318.713,148.023 321.679,146.897 323.924,144.65C326.082,142.491 327.162,139.769 327.162,136.485C327.162,133.18 326.114,130.47 324.021,128.358C321.775,126.088 318.778,124.95 315.028,124.95ZM345.131,146.365L354.437,123.229L353.553,123.229L353.553,122.588L359.048,122.588L359.048,123.229L357.805,123.229L347.144,149.843L348.287,149.843L348.287,150.584L341.976,150.584L341.976,149.843L343.187,149.843L331.643,123.229L330.432,123.229L330.432,122.588L336.089,122.588L336.089,123.229L335.206,123.229L345.131,146.365ZM365.916,123.229L365.916,149.843L367.06,149.843L367.06,150.584L361.534,150.584L361.534,149.843L362.742,149.843L362.742,123.229L361.534,123.229L361.534,122.588L367.06,122.588L367.06,123.229L365.916,123.229ZM384.947,125.321C382.068,125.321 379.476,126.22 377.165,128.027C374.438,130.137 373.076,132.934 373.076,136.403C373.076,139.781 374.21,142.517 376.477,144.61C378.745,146.708 381.633,147.752 385.143,147.752C387.367,147.752 389.493,147.245 391.521,146.233C393.744,145.131 395.239,143.984 396,142.794L395.215,141.815L395.738,141.41L399.206,145.898L398.616,146.302L397.962,145.459C397.441,145.909 396.926,146.357 396.426,146.809C395.073,147.841 393.591,148.685 391.979,149.337C389.688,150.258 387.325,150.719 384.881,150.719C380.021,150.719 376.193,149.348 373.403,146.603C370.787,144.019 369.477,140.668 369.477,136.554C369.477,132.46 371.059,129.043 374.219,126.299C377.272,123.647 380.954,122.319 385.272,122.319C387.584,122.319 389.787,122.669 391.879,123.364C394.322,124.175 395.967,125.017 396.817,125.894L397.473,124.885L398.026,125.22L395.184,130.146L394.593,129.773L395.214,128.726C394.255,127.917 393.154,127.232 391.912,126.67C389.926,125.77 387.867,125.32 385.73,125.32L384.947,125.32L384.947,125.321ZM405.324,137.733L405.324,147.281L423.897,147.281L423.897,146.098L424.551,146.098L424.551,151.833L423.897,151.833L423.897,150.651L400.907,150.651L400.907,149.91L402.118,149.91L402.118,123.297L400.907,123.297L400.907,122.657L423.897,122.657L423.897,121.409L424.551,121.409L424.551,127.142L423.897,127.142L423.897,125.928L405.324,125.928L405.324,134.427L417.914,134.427L417.914,133.246L418.6,133.246L418.6,138.98L417.914,138.98L417.914,137.733L405.324,137.733Z" style="fill:white;"/>
        </g>
    </g>
</svg>
