<?xml version="1.0" encoding="UTF-8" standalone="no"?>
<!DOCTYPE svg PUBLIC "-//W3C//DTD SVG 1.1//EN" "http://www.w3.org/Graphics/SVG/1.1/DTD/svg11.dtd">
<svg width="100%" height="100%" viewBox="0 0 117 55" version="1.1" xmlns="http://www.w3.org/2000/svg" xmlns:xlink="http://www.w3.org/1999/xlink" xml:space="preserve" xmlns:serif="http://www.serif.com/" style="fill-rule:evenodd;clip-rule:evenodd;stroke-linejoin:round;stroke-miterlimit:2;">
    <g transform="matrix(1.35023,0,0,1.35023,-0.603249,-1.12401)">
        <g transform="matrix(12,0,0,12,5.56465,25.5373)">
            <path d="M0.618,-0.439C0.578,-0.407 0.533,-0.38 0.482,-0.358C0.439,-0.339 0.368,-0.317 0.268,-0.291L0.229,-0.281L0.228,-0.254L0.226,-0.224C0.225,-0.214 0.224,-0.182 0.224,-0.129C0.224,-0.09 0.226,-0.059 0.231,-0.037L0.234,-0.02L0.235,-0.012L0.217,0.009C0.206,0.011 0.198,0.012 0.195,0.012L0.184,0.012L0.172,-0.001L0.173,-0.052L0.173,-0.106C0.173,-0.106 0.174,-0.161 0.175,-0.271L0.135,-0.265C0.135,-0.265 0.125,-0.263 0.104,-0.259L0.094,-0.261L0.093,-0.262L0.073,-0.287L0.081,-0.305L0.086,-0.314L0.092,-0.318L0.111,-0.319L0.132,-0.32L0.176,-0.326L0.178,-0.382L0.178,-0.465C0.176,-0.476 0.174,-0.484 0.171,-0.49L0.168,-0.497L0.17,-0.515L0.171,-0.517L0.181,-0.523L0.19,-0.529L0.206,-0.54L0.229,-0.534L0.238,-0.485L0.236,-0.453L0.235,-0.418L0.233,-0.382L0.231,-0.333L0.254,-0.335L0.261,-0.336L0.308,-0.344C0.365,-0.355 0.419,-0.371 0.468,-0.394C0.506,-0.413 0.54,-0.436 0.57,-0.463C0.599,-0.49 0.614,-0.513 0.614,-0.533C0.614,-0.554 0.599,-0.574 0.568,-0.593C0.505,-0.631 0.421,-0.65 0.316,-0.65C0.212,-0.65 0.121,-0.633 0.043,-0.6L0.023,-0.603L0.008,-0.621L0.025,-0.666L0.031,-0.668L0.042,-0.671C0.094,-0.686 0.146,-0.694 0.199,-0.694C0.339,-0.694 0.451,-0.677 0.536,-0.643C0.588,-0.622 0.627,-0.601 0.654,-0.578C0.67,-0.565 0.678,-0.548 0.678,-0.527C0.678,-0.5 0.658,-0.471 0.618,-0.439Z" style="fill:white;fill-rule:nonzero;"/>
        </g>
        <g transform="matrix(12,0,0,12,14.0006,25.5373)">
            <path d="M0.668,-0.637L0.662,-0.63L0.65,-0.617C0.633,-0.625 0.616,-0.632 0.599,-0.638C0.55,-0.655 0.511,-0.664 0.482,-0.664C0.442,-0.664 0.384,-0.654 0.309,-0.633C0.283,-0.626 0.262,-0.62 0.245,-0.615L0.205,-0.602L0.198,-0.602L0.19,-0.603L0.183,-0.605L0.178,-0.605L0.165,-0.62L0.17,-0.628C0.175,-0.639 0.183,-0.651 0.195,-0.664C0.264,-0.687 0.34,-0.704 0.421,-0.715C0.445,-0.718 0.467,-0.72 0.488,-0.72C0.522,-0.72 0.553,-0.713 0.581,-0.699C0.602,-0.689 0.628,-0.67 0.659,-0.643L0.675,-0.63L0.673,-0.644L0.668,-0.637ZM0.626,-0.132L0.625,-0.127L0.622,-0.118C0.588,-0.077 0.536,-0.043 0.465,-0.017C0.4,0.006 0.34,0.018 0.287,0.018C0.218,0.018 0.163,-0.001 0.121,-0.04C0.079,-0.078 0.058,-0.131 0.058,-0.199C0.058,-0.25 0.065,-0.301 0.08,-0.354C0.097,-0.419 0.12,-0.475 0.147,-0.522L0.171,-0.565L0.187,-0.569C0.194,-0.571 0.204,-0.572 0.219,-0.572C0.223,-0.572 0.227,-0.572 0.23,-0.571C0.219,-0.549 0.207,-0.521 0.193,-0.486L0.139,-0.357C0.214,-0.371 0.284,-0.378 0.35,-0.378C0.385,-0.378 0.427,-0.376 0.478,-0.371C0.487,-0.37 0.5,-0.369 0.519,-0.367L0.546,-0.362C0.546,-0.355 0.546,-0.345 0.545,-0.332L0.518,-0.331L0.392,-0.327C0.354,-0.326 0.307,-0.325 0.251,-0.322C0.223,-0.319 0.183,-0.311 0.131,-0.298C0.13,-0.291 0.128,-0.284 0.127,-0.278C0.124,-0.259 0.122,-0.237 0.122,-0.214C0.122,-0.092 0.177,-0.031 0.287,-0.031C0.29,-0.031 0.31,-0.033 0.347,-0.038C0.369,-0.04 0.398,-0.05 0.434,-0.068C0.449,-0.076 0.465,-0.085 0.481,-0.095L0.5,-0.106L0.556,-0.14C0.573,-0.15 0.588,-0.156 0.601,-0.158C0.612,-0.149 0.62,-0.142 0.626,-0.135L0.626,-0.132Z" style="fill:white;fill-rule:nonzero;"/>
        </g>
        <g transform="matrix(12,0,0,12,22.4006,25.5373)">
            <path d="M0.774,-0.546C0.768,-0.544 0.762,-0.54 0.755,-0.535C0.746,-0.529 0.739,-0.523 0.733,-0.518L0.73,-0.487L0.728,-0.473L0.722,-0.315C0.721,-0.278 0.717,-0.228 0.712,-0.167C0.706,-0.131 0.694,-0.095 0.675,-0.059C0.658,-0.026 0.626,-0.009 0.578,-0.009C0.523,-0.009 0.464,-0.049 0.399,-0.13C0.338,-0.205 0.284,-0.3 0.236,-0.416C0.206,-0.489 0.179,-0.565 0.155,-0.643L0.139,-0.696L0.141,-0.701C0.148,-0.713 0.162,-0.719 0.181,-0.719C0.188,-0.719 0.194,-0.719 0.198,-0.718L0.206,-0.71L0.206,-0.709C0.223,-0.596 0.245,-0.508 0.274,-0.445L0.322,-0.339C0.359,-0.265 0.396,-0.205 0.431,-0.159C0.469,-0.11 0.503,-0.081 0.534,-0.07C0.543,-0.067 0.553,-0.066 0.563,-0.066C0.6,-0.066 0.623,-0.078 0.632,-0.102C0.644,-0.132 0.654,-0.189 0.662,-0.273L0.667,-0.317L0.681,-0.585C0.682,-0.605 0.684,-0.618 0.687,-0.625C0.693,-0.64 0.711,-0.655 0.742,-0.671L0.752,-0.674L0.762,-0.666L0.764,-0.663C0.77,-0.644 0.779,-0.617 0.791,-0.58C0.789,-0.574 0.783,-0.563 0.774,-0.546ZM0.131,0.019L0.116,0.031C0.111,0.03 0.104,0.029 0.093,0.026L0.088,0.02L0.074,-0.004L0.067,-0.088L0.072,-0.305L0.072,-0.439C0.072,-0.504 0.07,-0.564 0.065,-0.62C0.069,-0.627 0.075,-0.633 0.082,-0.64L0.092,-0.646C0.095,-0.647 0.1,-0.649 0.107,-0.652L0.113,-0.653L0.116,-0.654L0.12,-0.648L0.122,-0.646C0.125,-0.639 0.126,-0.608 0.125,-0.554L0.118,-0.309C0.117,-0.272 0.119,-0.218 0.122,-0.147C0.124,-0.1 0.131,-0.049 0.144,0.007L0.131,0.019Z" style="fill:white;fill-rule:nonzero;"/>
        </g>
        <g transform="matrix(12,0,0,12,32.2526,25.5373)">
            <path d="M0.706,-0.539C0.671,-0.492 0.607,-0.43 0.516,-0.352C0.473,-0.315 0.438,-0.287 0.411,-0.266C0.387,-0.249 0.343,-0.216 0.279,-0.168L0.168,-0.082L0.133,-0.051C0.209,-0.051 0.26,-0.053 0.287,-0.056C0.338,-0.062 0.401,-0.074 0.474,-0.092C0.485,-0.095 0.502,-0.1 0.525,-0.107L0.538,-0.111C0.543,-0.11 0.548,-0.107 0.552,-0.101C0.556,-0.095 0.558,-0.089 0.558,-0.083C0.558,-0.08 0.557,-0.075 0.554,-0.068L0.55,-0.063C0.509,-0.05 0.448,-0.034 0.369,-0.017C0.31,-0.004 0.257,0.002 0.21,0.002L0.144,0.002C0.096,0.002 0.072,-0.009 0.072,-0.031C0.072,-0.037 0.074,-0.045 0.077,-0.054C0.078,-0.055 0.083,-0.06 0.092,-0.069L0.14,-0.11L0.147,-0.115L0.258,-0.192C0.313,-0.231 0.364,-0.27 0.41,-0.31C0.459,-0.353 0.491,-0.38 0.504,-0.392C0.539,-0.424 0.568,-0.453 0.592,-0.48C0.64,-0.534 0.664,-0.58 0.664,-0.617C0.664,-0.636 0.658,-0.653 0.647,-0.666C0.636,-0.679 0.62,-0.685 0.601,-0.686C0.556,-0.687 0.483,-0.68 0.383,-0.665C0.297,-0.652 0.214,-0.626 0.134,-0.586L0.103,-0.57L0.09,-0.567L0.077,-0.565L0.061,-0.562L0.046,-0.56C0.04,-0.559 0.036,-0.561 0.033,-0.566C0.03,-0.57 0.029,-0.573 0.029,-0.576C0.029,-0.582 0.032,-0.593 0.038,-0.61C0.04,-0.614 0.044,-0.621 0.051,-0.63C0.15,-0.67 0.264,-0.697 0.394,-0.71C0.488,-0.72 0.563,-0.725 0.62,-0.725C0.653,-0.725 0.681,-0.718 0.704,-0.703C0.731,-0.685 0.744,-0.66 0.744,-0.629C0.744,-0.602 0.731,-0.572 0.706,-0.539Z" style="fill:white;fill-rule:nonzero;"/>
        </g>
        <g transform="matrix(12,0,0,12,41.3486,25.5373)">
            <path d="M0.179,-0.563C0.164,-0.554 0.146,-0.55 0.126,-0.55C0.097,-0.55 0.073,-0.558 0.054,-0.575C0.033,-0.593 0.022,-0.616 0.022,-0.644C0.022,-0.667 0.03,-0.688 0.046,-0.706C0.062,-0.723 0.084,-0.733 0.113,-0.736L0.119,-0.746C0.122,-0.751 0.128,-0.754 0.136,-0.754C0.149,-0.754 0.165,-0.748 0.183,-0.736C0.203,-0.721 0.215,-0.706 0.22,-0.69C0.225,-0.673 0.227,-0.659 0.227,-0.648C0.227,-0.631 0.223,-0.615 0.215,-0.6C0.206,-0.584 0.194,-0.572 0.179,-0.563ZM0.155,-0.455L0.157,-0.453L0.161,-0.447L0.167,-0.44L0.17,-0.435L0.165,-0.351C0.165,-0.333 0.165,-0.305 0.164,-0.266C0.164,-0.246 0.164,-0.215 0.163,-0.174C0.162,-0.136 0.165,-0.104 0.17,-0.079L0.181,-0.023L0.176,-0.018L0.168,-0.008L0.162,-0L0.158,0.006L0.143,0.009L0.128,0.011L0.117,0.007L0.11,-0.002C0.097,-0.021 0.09,-0.038 0.09,-0.053L0.093,-0.07L0.094,-0.079C0.096,-0.095 0.097,-0.132 0.096,-0.19L0.096,-0.407L0.1,-0.419L0.108,-0.436L0.132,-0.448L0.155,-0.455Z" style="fill:white;fill-rule:nonzero;"/>
        </g>
        <g transform="matrix(12,0,0,12,44.2286,25.5373)">
            <path d="M0.682,-0.104C0.569,-0.019 0.451,0.023 0.328,0.023C0.221,0.023 0.141,-0.011 0.088,-0.079C0.053,-0.124 0.035,-0.176 0.035,-0.235C0.035,-0.294 0.056,-0.355 0.097,-0.417C0.14,-0.483 0.201,-0.542 0.28,-0.594C0.329,-0.626 0.4,-0.66 0.494,-0.696C0.522,-0.707 0.54,-0.712 0.548,-0.712C0.553,-0.712 0.559,-0.708 0.565,-0.701L0.567,-0.698L0.569,-0.688L0.572,-0.676L0.574,-0.667L0.576,-0.65C0.592,-0.649 0.605,-0.647 0.614,-0.646C0.689,-0.633 0.75,-0.599 0.795,-0.545C0.832,-0.501 0.85,-0.45 0.85,-0.391C0.85,-0.337 0.833,-0.283 0.799,-0.229C0.769,-0.182 0.73,-0.14 0.682,-0.104ZM0.277,-0.425C0.276,-0.424 0.276,-0.424 0.276,-0.424L0.271,-0.429L0.263,-0.439L0.262,-0.441C0.265,-0.452 0.268,-0.464 0.272,-0.477C0.276,-0.49 0.293,-0.518 0.324,-0.563L0.253,-0.509C0.209,-0.476 0.168,-0.43 0.131,-0.37C0.11,-0.337 0.1,-0.296 0.1,-0.248C0.1,-0.2 0.117,-0.154 0.151,-0.11C0.185,-0.066 0.225,-0.039 0.272,-0.03C0.31,-0.023 0.339,-0.019 0.358,-0.019C0.429,-0.019 0.507,-0.043 0.59,-0.09C0.646,-0.122 0.692,-0.163 0.727,-0.214C0.766,-0.27 0.785,-0.328 0.785,-0.388C0.785,-0.435 0.772,-0.478 0.746,-0.519C0.719,-0.56 0.684,-0.588 0.641,-0.603C0.602,-0.617 0.568,-0.624 0.539,-0.624C0.528,-0.624 0.494,-0.621 0.435,-0.615C0.364,-0.608 0.319,-0.554 0.3,-0.454L0.296,-0.436L0.287,-0.431L0.281,-0.427L0.277,-0.425Z" style="fill:white;fill-rule:nonzero;"/>
        </g>
        <g transform="matrix(12,0,0,12,54.8246,25.5373)">
            <path d="M0.774,-0.546C0.768,-0.544 0.762,-0.54 0.755,-0.535C0.746,-0.529 0.739,-0.523 0.733,-0.518L0.73,-0.487L0.728,-0.473L0.722,-0.315C0.721,-0.278 0.717,-0.228 0.712,-0.167C0.706,-0.131 0.694,-0.095 0.675,-0.059C0.658,-0.026 0.626,-0.009 0.578,-0.009C0.523,-0.009 0.464,-0.049 0.399,-0.13C0.338,-0.205 0.284,-0.3 0.236,-0.416C0.206,-0.489 0.179,-0.565 0.155,-0.643L0.139,-0.696L0.141,-0.701C0.148,-0.713 0.162,-0.719 0.181,-0.719C0.188,-0.719 0.194,-0.719 0.198,-0.718L0.206,-0.71L0.206,-0.709C0.223,-0.596 0.245,-0.508 0.274,-0.445L0.322,-0.339C0.359,-0.265 0.396,-0.205 0.431,-0.159C0.469,-0.11 0.503,-0.081 0.534,-0.07C0.543,-0.067 0.553,-0.066 0.563,-0.066C0.6,-0.066 0.623,-0.078 0.632,-0.102C0.644,-0.132 0.654,-0.189 0.662,-0.273L0.667,-0.317L0.681,-0.585C0.682,-0.605 0.684,-0.618 0.687,-0.625C0.693,-0.64 0.711,-0.655 0.742,-0.671L0.752,-0.674L0.762,-0.666L0.764,-0.663C0.77,-0.644 0.779,-0.617 0.791,-0.58C0.789,-0.574 0.783,-0.563 0.774,-0.546ZM0.131,0.019L0.116,0.031C0.111,0.03 0.104,0.029 0.093,0.026L0.088,0.02L0.074,-0.004L0.067,-0.088L0.072,-0.305L0.072,-0.439C0.072,-0.504 0.07,-0.564 0.065,-0.62C0.069,-0.627 0.075,-0.633 0.082,-0.64L0.092,-0.646C0.095,-0.647 0.1,-0.649 0.107,-0.652L0.113,-0.653L0.116,-0.654L0.12,-0.648L0.122,-0.646C0.125,-0.639 0.126,-0.608 0.125,-0.554L0.118,-0.309C0.117,-0.272 0.119,-0.218 0.122,-0.147C0.124,-0.1 0.131,-0.049 0.144,0.007L0.131,0.019Z" style="fill:white;fill-rule:nonzero;"/>
        </g>
        <g transform="matrix(12,0,0,12,64.6766,25.5373)">
            <path d="M0.668,-0.637L0.662,-0.63L0.65,-0.617C0.633,-0.625 0.616,-0.632 0.599,-0.638C0.55,-0.655 0.511,-0.664 0.482,-0.664C0.442,-0.664 0.384,-0.654 0.309,-0.633C0.283,-0.626 0.262,-0.62 0.245,-0.615L0.205,-0.602L0.198,-0.602L0.19,-0.603L0.183,-0.605L0.178,-0.605L0.165,-0.62L0.17,-0.628C0.175,-0.639 0.183,-0.651 0.195,-0.664C0.264,-0.687 0.34,-0.704 0.421,-0.715C0.445,-0.718 0.467,-0.72 0.488,-0.72C0.522,-0.72 0.553,-0.713 0.581,-0.699C0.602,-0.689 0.628,-0.67 0.659,-0.643L0.675,-0.63L0.673,-0.644L0.668,-0.637ZM0.626,-0.132L0.625,-0.127L0.622,-0.118C0.588,-0.077 0.536,-0.043 0.465,-0.017C0.4,0.006 0.34,0.018 0.287,0.018C0.218,0.018 0.163,-0.001 0.121,-0.04C0.079,-0.078 0.058,-0.131 0.058,-0.199C0.058,-0.25 0.065,-0.301 0.08,-0.354C0.097,-0.419 0.12,-0.475 0.147,-0.522L0.171,-0.565L0.187,-0.569C0.194,-0.571 0.204,-0.572 0.219,-0.572C0.223,-0.572 0.227,-0.572 0.23,-0.571C0.219,-0.549 0.207,-0.521 0.193,-0.486L0.139,-0.357C0.214,-0.371 0.284,-0.378 0.35,-0.378C0.385,-0.378 0.427,-0.376 0.478,-0.371C0.487,-0.37 0.5,-0.369 0.519,-0.367L0.546,-0.362C0.546,-0.355 0.546,-0.345 0.545,-0.332L0.518,-0.331L0.392,-0.327C0.354,-0.326 0.307,-0.325 0.251,-0.322C0.223,-0.319 0.183,-0.311 0.131,-0.298C0.13,-0.291 0.128,-0.284 0.127,-0.278C0.124,-0.259 0.122,-0.237 0.122,-0.214C0.122,-0.092 0.177,-0.031 0.287,-0.031C0.29,-0.031 0.31,-0.033 0.347,-0.038C0.369,-0.04 0.398,-0.05 0.434,-0.068C0.449,-0.076 0.465,-0.085 0.481,-0.095L0.5,-0.106L0.556,-0.14C0.573,-0.15 0.588,-0.156 0.601,-0.158C0.612,-0.149 0.62,-0.142 0.626,-0.135L0.626,-0.132Z" style="fill:white;fill-rule:nonzero;"/>
        </g>
        <g transform="matrix(12,0,0,12,73.0766,25.5373)">
            <path d="M0.724,-0.669L0.714,-0.657C0.682,-0.614 0.629,-0.567 0.555,-0.517C0.486,-0.47 0.399,-0.422 0.292,-0.375L0.216,-0.341L0.324,-0.276C0.433,-0.211 0.535,-0.162 0.63,-0.129C0.662,-0.118 0.685,-0.113 0.7,-0.113L0.725,-0.113C0.725,-0.113 0.726,-0.112 0.728,-0.109C0.73,-0.106 0.731,-0.102 0.731,-0.095C0.732,-0.084 0.725,-0.071 0.712,-0.054L0.706,-0.046L0.703,-0.044C0.697,-0.042 0.691,-0.041 0.685,-0.041C0.668,-0.041 0.644,-0.047 0.613,-0.06C0.562,-0.082 0.508,-0.11 0.451,-0.143L0.382,-0.183C0.34,-0.208 0.293,-0.237 0.24,-0.272C0.212,-0.291 0.191,-0.305 0.178,-0.316C0.167,-0.325 0.162,-0.334 0.162,-0.341C0.162,-0.342 0.165,-0.351 0.17,-0.366C0.173,-0.378 0.183,-0.384 0.2,-0.384C0.201,-0.384 0.202,-0.384 0.203,-0.383L0.219,-0.38L0.275,-0.411C0.389,-0.472 0.479,-0.528 0.544,-0.58C0.601,-0.626 0.643,-0.671 0.668,-0.715C0.676,-0.718 0.685,-0.721 0.694,-0.723L0.701,-0.723L0.717,-0.712L0.733,-0.696L0.733,-0.691L0.734,-0.685L0.734,-0.682L0.724,-0.669ZM0.15,0.001C0.149,0.002 0.145,0.005 0.137,0.011L0.121,0.021L0.115,0.021L0.107,0.017L0.098,0.012L0.09,0.008L0.085,-0.002L0.083,-0.113L0.083,-0.443C0.084,-0.48 0.081,-0.53 0.076,-0.595C0.071,-0.621 0.06,-0.646 0.043,-0.669C0.042,-0.672 0.042,-0.675 0.042,-0.677C0.042,-0.678 0.042,-0.681 0.043,-0.684L0.046,-0.689C0.057,-0.704 0.072,-0.718 0.09,-0.731C0.113,-0.725 0.126,-0.707 0.129,-0.678L0.132,-0.651L0.132,-0.644L0.13,-0.591L0.127,-0.555C0.124,-0.497 0.124,-0.435 0.125,-0.37C0.126,-0.325 0.128,-0.279 0.13,-0.234C0.131,-0.16 0.139,-0.085 0.152,-0.008L0.15,0.001Z" style="fill:white;fill-rule:nonzero;"/>
        </g>
    </g>
</svg>
