<?xml version="1.0" encoding="UTF-8" standalone="no"?>
<!DOCTYPE svg PUBLIC "-//W3C//DTD SVG 1.1//EN" "http://www.w3.org/Graphics/SVG/1.1/DTD/svg11.dtd">
<svg width="100%" height="100%" viewBox="0 0 117 55" version="1.1" xmlns="http://www.w3.org/2000/svg" xmlns:xlink="http://www.w3.org/1999/xlink" xml:space="preserve" xmlns:serif="http://www.serif.com/" style="fill-rule:evenodd;clip-rule:evenodd;stroke-linejoin:round;stroke-miterlimit:2;">
    <g transform="matrix(0.93272,0,0,0.908273,24.694,3.69833)">
        <g transform="matrix(17.88,0,0,17.88,22.3839,25.2732)">
            <path d="M0.147,-0C0.128,-0 0.112,-0.006 0.097,-0.018C0.082,-0.029 0.075,-0.044 0.075,-0.061L0.075,-0.639C0.075,-0.656 0.081,-0.671 0.093,-0.683C0.104,-0.694 0.119,-0.7 0.136,-0.7L0.424,-0.7C0.459,-0.7 0.491,-0.691 0.522,-0.673C0.552,-0.654 0.576,-0.629 0.595,-0.597C0.614,-0.564 0.623,-0.527 0.623,-0.485C0.623,-0.46 0.618,-0.435 0.608,-0.411C0.597,-0.387 0.583,-0.365 0.566,-0.346C0.548,-0.327 0.528,-0.312 0.506,-0.301L0.507,-0.324C0.526,-0.314 0.541,-0.302 0.554,-0.289C0.566,-0.275 0.576,-0.26 0.583,-0.245C0.59,-0.229 0.594,-0.212 0.595,-0.194C0.598,-0.177 0.6,-0.163 0.601,-0.15C0.602,-0.137 0.604,-0.127 0.607,-0.118C0.61,-0.109 0.615,-0.103 0.624,-0.098C0.639,-0.089 0.648,-0.077 0.652,-0.061C0.655,-0.044 0.651,-0.03 0.64,-0.017C0.633,-0.008 0.623,-0.003 0.612,-0.001C0.601,0.002 0.589,0.002 0.578,-0.001C0.567,-0.003 0.557,-0.006 0.55,-0.01C0.539,-0.017 0.527,-0.027 0.516,-0.04C0.505,-0.053 0.496,-0.07 0.489,-0.092C0.482,-0.114 0.478,-0.142 0.478,-0.177C0.478,-0.188 0.476,-0.199 0.472,-0.209C0.468,-0.218 0.462,-0.227 0.455,-0.234C0.448,-0.241 0.438,-0.246 0.427,-0.25C0.416,-0.253 0.402,-0.255 0.387,-0.255L0.185,-0.255L0.2,-0.278L0.2,-0.061C0.2,-0.044 0.195,-0.029 0.186,-0.018C0.177,-0.006 0.164,-0 0.147,-0ZM0.186,-0.358L0.419,-0.358C0.431,-0.358 0.443,-0.364 0.454,-0.375C0.465,-0.386 0.475,-0.401 0.482,-0.42C0.489,-0.439 0.493,-0.459 0.493,-0.482C0.493,-0.511 0.485,-0.536 0.47,-0.556C0.454,-0.575 0.437,-0.585 0.419,-0.585L0.188,-0.585L0.2,-0.617L0.2,-0.334L0.186,-0.358Z" style="fill:white;fill-rule:nonzero;"/>
        </g>
        <g transform="matrix(17.88,0,0,17.88,34.5781,25.2732)">
            <path d="M0.317,0.01C0.26,0.01 0.211,-0.002 0.17,-0.026C0.128,-0.049 0.096,-0.081 0.074,-0.122C0.051,-0.163 0.04,-0.209 0.04,-0.26C0.04,-0.32 0.052,-0.371 0.077,-0.414C0.101,-0.456 0.133,-0.488 0.172,-0.511C0.211,-0.534 0.253,-0.545 0.297,-0.545C0.331,-0.545 0.363,-0.538 0.394,-0.524C0.424,-0.51 0.451,-0.491 0.474,-0.467C0.497,-0.442 0.516,-0.414 0.53,-0.382C0.543,-0.35 0.55,-0.316 0.55,-0.28C0.549,-0.264 0.543,-0.251 0.531,-0.241C0.519,-0.231 0.505,-0.226 0.489,-0.226L0.107,-0.226L0.077,-0.326L0.444,-0.326L0.422,-0.306L0.422,-0.333C0.421,-0.352 0.414,-0.37 0.402,-0.385C0.389,-0.4 0.374,-0.413 0.356,-0.422C0.337,-0.431 0.318,-0.435 0.297,-0.435C0.277,-0.435 0.258,-0.432 0.241,-0.427C0.224,-0.422 0.209,-0.413 0.196,-0.4C0.183,-0.387 0.173,-0.37 0.166,-0.349C0.159,-0.328 0.155,-0.301 0.155,-0.268C0.155,-0.232 0.163,-0.202 0.178,-0.177C0.193,-0.152 0.212,-0.133 0.236,-0.12C0.259,-0.107 0.284,-0.1 0.311,-0.1C0.336,-0.1 0.355,-0.102 0.37,-0.106C0.385,-0.11 0.397,-0.115 0.406,-0.121C0.415,-0.126 0.423,-0.131 0.43,-0.135C0.442,-0.141 0.453,-0.144 0.464,-0.144C0.479,-0.144 0.491,-0.139 0.501,-0.129C0.51,-0.119 0.515,-0.107 0.515,-0.094C0.515,-0.076 0.506,-0.06 0.487,-0.045C0.47,-0.03 0.445,-0.017 0.414,-0.007C0.383,0.005 0.35,0.01 0.317,0.01Z" style="fill:white;fill-rule:nonzero;"/>
        </g>
        <g transform="matrix(17.88,0,0,17.88,45.1273,25.2732)">
            <path d="M0.034,-0.083C0.027,-0.092 0.024,-0.104 0.025,-0.119C0.026,-0.134 0.034,-0.146 0.051,-0.157C0.062,-0.164 0.073,-0.167 0.085,-0.166C0.097,-0.165 0.109,-0.158 0.12,-0.147C0.139,-0.128 0.16,-0.113 0.181,-0.102C0.202,-0.091 0.229,-0.086 0.261,-0.086C0.271,-0.087 0.282,-0.088 0.294,-0.091C0.306,-0.093 0.317,-0.098 0.326,-0.107C0.335,-0.115 0.339,-0.128 0.339,-0.145C0.339,-0.16 0.334,-0.171 0.324,-0.18C0.314,-0.189 0.301,-0.196 0.285,-0.202C0.268,-0.208 0.25,-0.214 0.23,-0.219C0.209,-0.225 0.188,-0.232 0.167,-0.239C0.145,-0.246 0.125,-0.256 0.107,-0.268C0.089,-0.279 0.074,-0.295 0.063,-0.314C0.052,-0.333 0.046,-0.358 0.046,-0.387C0.046,-0.42 0.055,-0.449 0.074,-0.472C0.093,-0.495 0.117,-0.513 0.147,-0.526C0.176,-0.539 0.207,-0.545 0.24,-0.545C0.261,-0.545 0.282,-0.543 0.305,-0.538C0.328,-0.533 0.349,-0.525 0.37,-0.514C0.391,-0.502 0.408,-0.488 0.422,-0.47C0.429,-0.46 0.434,-0.448 0.435,-0.434C0.436,-0.42 0.43,-0.407 0.416,-0.396C0.406,-0.388 0.394,-0.385 0.381,-0.386C0.368,-0.387 0.357,-0.391 0.348,-0.399C0.337,-0.414 0.322,-0.425 0.303,-0.434C0.284,-0.443 0.262,-0.447 0.237,-0.447C0.227,-0.447 0.216,-0.446 0.205,-0.444C0.193,-0.441 0.183,-0.436 0.174,-0.429C0.165,-0.421 0.161,-0.409 0.161,-0.392C0.161,-0.377 0.166,-0.365 0.176,-0.356C0.186,-0.347 0.2,-0.339 0.217,-0.334C0.234,-0.328 0.252,-0.322 0.271,-0.317C0.291,-0.312 0.311,-0.305 0.332,-0.298C0.353,-0.291 0.372,-0.281 0.389,-0.269C0.406,-0.257 0.42,-0.242 0.431,-0.223C0.442,-0.204 0.447,-0.179 0.447,-0.15C0.447,-0.116 0.437,-0.087 0.417,-0.063C0.397,-0.039 0.372,-0.021 0.342,-0.009C0.312,0.004 0.281,0.01 0.25,0.01C0.211,0.01 0.171,0.003 0.132,-0.011C0.093,-0.024 0.06,-0.048 0.034,-0.083ZM0.221,-0.6C0.196,-0.6 0.175,-0.61 0.16,-0.63L0.116,-0.685C0.108,-0.696 0.104,-0.706 0.104,-0.717C0.104,-0.726 0.108,-0.733 0.115,-0.738C0.122,-0.743 0.132,-0.746 0.145,-0.746C0.157,-0.746 0.172,-0.738 0.19,-0.723L0.255,-0.667L0.229,-0.67L0.29,-0.723C0.299,-0.731 0.308,-0.737 0.315,-0.741C0.322,-0.744 0.332,-0.746 0.345,-0.746C0.354,-0.746 0.362,-0.744 0.369,-0.739C0.375,-0.733 0.378,-0.727 0.378,-0.72C0.378,-0.715 0.377,-0.71 0.375,-0.705C0.372,-0.699 0.368,-0.692 0.362,-0.685L0.318,-0.63C0.303,-0.61 0.282,-0.6 0.257,-0.6L0.221,-0.6Z" style="fill:white;fill-rule:nonzero;"/>
        </g>
        <g transform="matrix(17.88,0,0,17.88,53.7455,25.2732)">
            <path d="M0.195,-0.061C0.195,-0.044 0.189,-0.029 0.178,-0.018C0.166,-0.006 0.151,-0 0.134,-0C0.117,-0 0.103,-0.006 0.092,-0.018C0.081,-0.029 0.075,-0.044 0.075,-0.061L0.075,-0.679C0.075,-0.696 0.081,-0.711 0.093,-0.723C0.104,-0.734 0.119,-0.74 0.136,-0.74C0.153,-0.74 0.167,-0.734 0.179,-0.723C0.19,-0.711 0.195,-0.696 0.195,-0.679L0.195,-0.061Z" style="fill:white;fill-rule:nonzero;"/>
        </g>
    </g>
    <g transform="matrix(0.93272,0,0,0.908273,24.694,20.1356)">
        <g transform="matrix(17.88,0,0,17.88,22.3839,22.2001)">
            <path d="M0.138,-0.701C0.147,-0.701 0.157,-0.699 0.168,-0.694C0.178,-0.689 0.186,-0.682 0.191,-0.674L0.434,-0.3L0.384,-0.302L0.633,-0.674C0.646,-0.692 0.662,-0.701 0.682,-0.701C0.698,-0.701 0.712,-0.695 0.725,-0.684C0.738,-0.673 0.744,-0.658 0.744,-0.64L0.744,-0.061C0.744,-0.044 0.738,-0.029 0.727,-0.018C0.716,-0.006 0.701,-0 0.682,-0C0.663,-0 0.648,-0.006 0.637,-0.018C0.625,-0.029 0.619,-0.044 0.619,-0.061L0.619,-0.532L0.658,-0.523L0.454,-0.212C0.448,-0.205 0.44,-0.198 0.432,-0.193C0.423,-0.188 0.413,-0.185 0.404,-0.186C0.395,-0.185 0.387,-0.188 0.378,-0.193C0.369,-0.198 0.361,-0.205 0.355,-0.212L0.164,-0.514L0.19,-0.567L0.19,-0.061C0.19,-0.044 0.185,-0.029 0.174,-0.018C0.163,-0.006 0.149,-0 0.132,-0C0.115,-0 0.102,-0.006 0.091,-0.018C0.08,-0.029 0.075,-0.044 0.075,-0.061L0.075,-0.64C0.075,-0.657 0.081,-0.671 0.094,-0.683C0.106,-0.695 0.121,-0.701 0.138,-0.701Z" style="fill:white;fill-rule:nonzero;"/>
        </g>
        <g transform="matrix(17.88,0,0,17.88,37.0277,22.2001)">
            <path d="M0.462,-0.535C0.479,-0.535 0.494,-0.529 0.505,-0.518C0.516,-0.506 0.522,-0.491 0.522,-0.474L0.522,-0.22C0.522,-0.149 0.502,-0.093 0.463,-0.052C0.424,-0.011 0.367,0.01 0.293,0.01C0.219,0.01 0.163,-0.011 0.124,-0.052C0.085,-0.093 0.065,-0.149 0.065,-0.22L0.065,-0.474C0.065,-0.491 0.071,-0.506 0.082,-0.518C0.093,-0.529 0.108,-0.535 0.125,-0.535C0.142,-0.535 0.157,-0.529 0.168,-0.518C0.179,-0.506 0.185,-0.491 0.185,-0.474L0.185,-0.22C0.185,-0.179 0.194,-0.149 0.212,-0.13C0.23,-0.11 0.257,-0.1 0.293,-0.1C0.33,-0.1 0.357,-0.11 0.375,-0.13C0.393,-0.149 0.402,-0.179 0.402,-0.22L0.402,-0.474C0.402,-0.491 0.408,-0.506 0.419,-0.518C0.43,-0.529 0.445,-0.535 0.462,-0.535Z" style="fill:white;fill-rule:nonzero;"/>
        </g>
        <g transform="matrix(17.88,0,0,17.88,47.5233,22.2001)">
            <path d="M0.406,-0.11C0.422,-0.11 0.435,-0.105 0.446,-0.095C0.457,-0.084 0.462,-0.071 0.462,-0.055C0.462,-0.04 0.457,-0.027 0.446,-0.016C0.435,-0.005 0.422,-0 0.406,-0L0.084,-0C0.067,-0 0.054,-0.006 0.044,-0.018C0.034,-0.03 0.029,-0.042 0.03,-0.054C0.031,-0.064 0.032,-0.073 0.034,-0.081C0.036,-0.088 0.041,-0.097 0.049,-0.107L0.298,-0.429L0.296,-0.415L0.093,-0.415C0.077,-0.415 0.064,-0.42 0.053,-0.431C0.042,-0.442 0.037,-0.455 0.037,-0.471C0.037,-0.486 0.042,-0.499 0.053,-0.51C0.064,-0.52 0.077,-0.525 0.093,-0.525L0.401,-0.525C0.416,-0.525 0.429,-0.519 0.44,-0.508C0.451,-0.497 0.455,-0.482 0.454,-0.465C0.453,-0.458 0.452,-0.452 0.451,-0.445C0.449,-0.438 0.444,-0.43 0.437,-0.421L0.192,-0.104L0.192,-0.11L0.406,-0.11Z" style="fill:white;fill-rule:nonzero;"/>
        </g>
        <g transform="matrix(17.88,0,0,17.88,56.1771,22.2001)">
            <path d="M0.178,-0.061C0.178,-0.044 0.172,-0.029 0.161,-0.018C0.15,-0.006 0.135,-0 0.118,-0C0.101,-0 0.086,-0.006 0.075,-0.018C0.064,-0.029 0.058,-0.044 0.058,-0.061L0.058,-0.474C0.058,-0.491 0.064,-0.506 0.075,-0.518C0.086,-0.529 0.101,-0.535 0.118,-0.535C0.135,-0.535 0.15,-0.529 0.161,-0.518C0.172,-0.506 0.178,-0.491 0.178,-0.474L0.178,-0.061ZM0.117,-0.6C0.094,-0.6 0.078,-0.604 0.069,-0.611C0.06,-0.618 0.055,-0.631 0.055,-0.65L0.055,-0.669C0.055,-0.688 0.06,-0.702 0.071,-0.709C0.081,-0.716 0.097,-0.719 0.118,-0.719C0.141,-0.719 0.158,-0.715 0.167,-0.708C0.176,-0.701 0.181,-0.688 0.181,-0.669L0.181,-0.65C0.181,-0.631 0.176,-0.618 0.166,-0.611C0.156,-0.604 0.14,-0.6 0.117,-0.6Z" style="fill:white;fill-rule:nonzero;"/>
        </g>
        <g transform="matrix(17.88,0,0,17.88,60.3969,22.2001)">
            <path d="M0.135,-0C0.118,-0 0.103,-0.006 0.092,-0.018C0.081,-0.029 0.075,-0.044 0.075,-0.061L0.075,-0.679C0.075,-0.696 0.081,-0.711 0.092,-0.723C0.103,-0.734 0.118,-0.74 0.135,-0.74C0.152,-0.74 0.167,-0.734 0.178,-0.723C0.189,-0.711 0.195,-0.696 0.195,-0.679L0.195,-0.061C0.195,-0.044 0.189,-0.029 0.178,-0.018C0.167,-0.006 0.152,-0 0.135,-0ZM0.453,-0.535C0.468,-0.535 0.482,-0.529 0.493,-0.516C0.504,-0.503 0.51,-0.491 0.51,-0.479C0.51,-0.463 0.502,-0.448 0.486,-0.434L0.185,-0.157L0.18,-0.295L0.409,-0.516C0.422,-0.529 0.436,-0.535 0.453,-0.535ZM0.468,-0.001C0.451,-0.001 0.436,-0.008 0.424,-0.021L0.239,-0.217L0.33,-0.301L0.51,-0.105C0.523,-0.092 0.529,-0.077 0.529,-0.06C0.529,-0.043 0.522,-0.029 0.509,-0.018C0.495,-0.007 0.481,-0.001 0.468,-0.001Z" style="fill:white;fill-rule:nonzero;"/>
        </g>
        <g transform="matrix(17.88,0,0,17.88,70.499,22.2001)">
            <path d="M0.503,-0.545C0.52,-0.545 0.535,-0.539 0.546,-0.528C0.557,-0.517 0.563,-0.502 0.563,-0.484L0.563,-0.061C0.563,-0.044 0.557,-0.029 0.546,-0.018C0.535,-0.006 0.52,-0 0.503,-0C0.486,-0 0.471,-0.006 0.46,-0.018C0.449,-0.029 0.443,-0.044 0.443,-0.061L0.443,-0.11L0.465,-0.101C0.465,-0.092 0.46,-0.082 0.451,-0.07C0.442,-0.057 0.429,-0.045 0.413,-0.033C0.397,-0.021 0.378,-0.011 0.357,-0.003C0.335,0.006 0.311,0.01 0.286,0.01C0.24,0.01 0.198,-0.002 0.161,-0.026C0.124,-0.049 0.094,-0.082 0.073,-0.124C0.051,-0.165 0.04,-0.213 0.04,-0.267C0.04,-0.322 0.051,-0.37 0.073,-0.412C0.094,-0.453 0.123,-0.486 0.16,-0.51C0.197,-0.533 0.237,-0.545 0.282,-0.545C0.311,-0.545 0.337,-0.541 0.361,-0.532C0.385,-0.523 0.406,-0.512 0.424,-0.499C0.441,-0.486 0.455,-0.472 0.465,-0.459C0.474,-0.445 0.479,-0.433 0.479,-0.424L0.443,-0.411L0.443,-0.484C0.443,-0.501 0.449,-0.516 0.46,-0.528C0.471,-0.539 0.486,-0.545 0.503,-0.545ZM0.301,-0.1C0.33,-0.1 0.356,-0.107 0.378,-0.122C0.4,-0.137 0.417,-0.157 0.43,-0.182C0.442,-0.207 0.448,-0.236 0.448,-0.267C0.448,-0.299 0.442,-0.328 0.43,-0.353C0.417,-0.378 0.4,-0.398 0.378,-0.413C0.356,-0.428 0.33,-0.435 0.301,-0.435C0.272,-0.435 0.247,-0.428 0.225,-0.413C0.203,-0.398 0.186,-0.378 0.174,-0.353C0.161,-0.328 0.155,-0.299 0.155,-0.267C0.155,-0.236 0.161,-0.207 0.174,-0.182C0.186,-0.157 0.203,-0.137 0.225,-0.122C0.247,-0.107 0.272,-0.1 0.301,-0.1Z" style="fill:white;fill-rule:nonzero;"/>
        </g>
    </g>
    <g transform="matrix(36.0047,0,0,36.0047,16.0808,40.1016)">
        <g>
            <path d="M0.272,0.01C0.225,0.01 0.183,-0.001 0.146,-0.023C0.109,-0.045 0.081,-0.073 0.061,-0.108C0.04,-0.143 0.03,-0.179 0.03,-0.218C0.03,-0.247 0.036,-0.276 0.048,-0.303C0.059,-0.33 0.077,-0.355 0.101,-0.377C0.124,-0.398 0.154,-0.415 0.191,-0.428L0.234,-0.385C0.182,-0.373 0.145,-0.352 0.124,-0.323C0.103,-0.294 0.092,-0.261 0.092,-0.226C0.092,-0.196 0.099,-0.167 0.113,-0.141C0.127,-0.114 0.148,-0.091 0.176,-0.074C0.204,-0.057 0.238,-0.048 0.279,-0.048C0.322,-0.048 0.36,-0.055 0.391,-0.07C0.422,-0.084 0.448,-0.103 0.469,-0.127C0.49,-0.15 0.507,-0.177 0.52,-0.207C0.533,-0.236 0.542,-0.266 0.548,-0.297C0.549,-0.304 0.552,-0.309 0.557,-0.313C0.561,-0.316 0.567,-0.318 0.575,-0.318C0.584,-0.318 0.592,-0.315 0.597,-0.308C0.602,-0.301 0.604,-0.293 0.603,-0.283C0.597,-0.247 0.586,-0.212 0.57,-0.177C0.554,-0.142 0.532,-0.111 0.505,-0.083C0.478,-0.054 0.445,-0.032 0.406,-0.015C0.367,0.002 0.323,0.01 0.272,0.01ZM0.627,-0.003C0.624,-0.003 0.62,-0.004 0.618,-0.005C0.615,-0.006 0.612,-0.007 0.609,-0.008C0.568,-0.04 0.529,-0.071 0.492,-0.101C0.454,-0.13 0.417,-0.162 0.38,-0.197C0.343,-0.232 0.304,-0.272 0.263,-0.317C0.24,-0.344 0.219,-0.37 0.2,-0.396C0.181,-0.421 0.166,-0.447 0.155,-0.472C0.144,-0.497 0.138,-0.521 0.138,-0.546C0.138,-0.577 0.146,-0.604 0.161,-0.63C0.176,-0.655 0.198,-0.674 0.226,-0.689C0.254,-0.703 0.287,-0.71 0.326,-0.71C0.374,-0.71 0.414,-0.701 0.445,-0.683C0.476,-0.665 0.498,-0.644 0.511,-0.619C0.512,-0.618 0.513,-0.616 0.514,-0.613C0.515,-0.609 0.516,-0.605 0.516,-0.6C0.516,-0.594 0.514,-0.588 0.509,-0.583C0.503,-0.578 0.497,-0.575 0.488,-0.575C0.483,-0.575 0.478,-0.576 0.475,-0.578C0.471,-0.58 0.468,-0.583 0.466,-0.586C0.453,-0.606 0.435,-0.623 0.414,-0.636C0.392,-0.649 0.363,-0.655 0.326,-0.655C0.285,-0.655 0.254,-0.645 0.233,-0.625C0.212,-0.604 0.201,-0.578 0.201,-0.546C0.201,-0.525 0.207,-0.503 0.218,-0.481C0.229,-0.458 0.244,-0.434 0.262,-0.411C0.279,-0.388 0.298,-0.365 0.317,-0.343C0.344,-0.313 0.372,-0.284 0.402,-0.256C0.431,-0.227 0.46,-0.201 0.49,-0.176C0.519,-0.151 0.546,-0.129 0.572,-0.109C0.598,-0.089 0.621,-0.071 0.641,-0.056C0.646,-0.053 0.649,-0.049 0.651,-0.045C0.653,-0.041 0.654,-0.036 0.654,-0.031C0.654,-0.026 0.652,-0.02 0.647,-0.013C0.642,-0.006 0.636,-0.003 0.627,-0.003Z" style="fill:white;fill-rule:nonzero;"/>
        </g>
    </g>
</svg>
