<?xml version="1.0" encoding="UTF-8" standalone="no"?>
<!DOCTYPE svg PUBLIC "-//W3C//DTD SVG 1.1//EN" "http://www.w3.org/Graphics/SVG/1.1/DTD/svg11.dtd">
<svg width="100%" height="100%" viewBox="0 0 200 90" version="1.1" xmlns="http://www.w3.org/2000/svg" xmlns:xlink="http://www.w3.org/1999/xlink" xml:space="preserve" xmlns:serif="http://www.serif.com/" style="fill-rule:evenodd;clip-rule:evenodd;stroke-linejoin:round;stroke-miterlimit:2;">
    <g transform="matrix(0.252392,0,0,0.252392,-6.24468,-23.4893)">
        <path d="M240.14,280.93C232.75,277.6 222.21,274.64 211.67,274.64C200.39,274.64 194.48,278.34 194.48,285.92C194.48,290.54 196.7,294.24 202.24,298.31C209.08,303.49 228.49,314.58 236.63,321.05C245.87,328.81 249.76,338.06 249.76,350.44C249.76,374.84 234.97,390.74 201.88,390.74C188.57,390.74 174.15,387.97 165.83,385.19L168.42,358.38C176.55,362.45 189.13,365.78 201.14,365.78C216.67,365.78 222.77,360.23 222.77,351.36C222.77,345.08 219.63,341.19 212.05,335.65C208.54,333.25 190.61,322.71 180.62,313.84C172.86,306.81 168.23,299.97 168.23,287.22C168.23,263.56 184.13,250.25 211.49,250.25C224.06,250.25 236.08,253.02 242.73,255.98L240.14,280.93Z" style="fill:white;fill-rule:nonzero;"/>
        <path d="M295.6,260.78C295.6,269.28 289.31,275.75 281,275.75C272.87,275.75 266.77,269.28 266.77,260.78C266.77,252.65 272.87,246.36 281,246.36C289.32,246.36 295.6,252.64 295.6,260.78Z" style="fill:white;fill-rule:nonzero;"/>
        <rect x="267.87" y="290.54" width="26.25" height="97.8" style="fill:white;"/>
        <rect x="317.42" y="246.17" width="26.25" height="142.17" style="fill:white;fill-rule:nonzero;"/>
        <rect x="366.96" y="246.17" width="26.25" height="142.17" style="fill:white;fill-rule:nonzero;"/>
        <path d="M441.65,290.54L441.65,346.37C441.65,361.72 446.64,365.97 454.59,365.97C460.51,365.97 466.98,363.57 471.04,359.32L471.04,290.55L497.48,290.55L497.48,388.35L472.89,388.35L472.89,377.44C465.86,385.76 456.44,389.83 444.97,389.83C426.3,389.83 415.76,379.11 415.76,351.75L415.76,290.56L441.65,290.56L441.65,290.54Z" style="fill:white;fill-rule:nonzero;"/>
        <path d="M544.99,290.54L544.99,301.45C550.35,294.42 559.23,289.06 568.47,289.06C571.8,289.06 576.6,289.8 578.27,290.72L578.27,316.05C575.68,314.2 572.35,312.91 567.18,312.91C557.75,312.91 551.47,317.9 546.84,324.19L546.84,388.34L520.59,388.34L520.59,290.54L544.99,290.54Z" style="fill:white;fill-rule:nonzero;"/>
        <path d="M676.06,339.35C676.06,368.93 664.23,390.19 632.43,390.19C600.82,390.19 589.17,368.93 589.17,339.35C589.17,309.22 601,289.07 632.43,289.07C664.23,289.06 676.06,309.58 676.06,339.35ZM614.5,339.72C614.5,358.21 619.12,366.53 632.62,366.53C646.12,366.53 651.11,358.21 651.11,339.72C651.11,321.05 646.12,312.73 632.62,312.73C619.12,312.73 614.5,320.86 614.5,339.72Z" style="fill:white;fill-rule:nonzero;"/>
        <g>
            <ellipse cx="461.37" cy="212.12" rx="9.31" ry="9.23" style="fill:white;"/>
            <path d="M424.87,244.79C435.33,254.61 453.46,259.83 473.34,259.83C498.1,259.83 525.57,251.73 544.32,234.31C547.27,231.57 547.43,226.97 544.66,224.03C541.89,221.1 537.25,220.95 534.3,223.7C504.71,251.19 451.46,249.7 434.96,234.23C432.47,231.89 424.88,224.77 437.46,209.89C458.59,184.92 489.95,188.18 507.13,192.5C507.28,204.61 517.26,214.42 529.51,214.42C535.03,214.42 540.07,212.42 543.98,209.13C546.95,211.14 550.28,213.5 553.86,216.14C558.65,219.65 563.68,223.46 568.85,227.38C597.25,248.9 626.56,271.11 648.96,271.11C650.56,271.11 652.12,271 653.65,270.76C660.78,269.66 666.54,266.07 670.77,260.08C675.69,253.11 677.22,245.1 675.22,236.92C668.9,211.08 629.08,189.64 624.56,187.28C622,185.94 618.88,186.23 616.61,188C614.33,189.78 613.33,192.71 614.04,195.5L620.85,222.17C621.84,226.06 625.83,228.42 629.76,227.43C633.69,226.44 636.06,222.49 635.07,218.6L632.7,209.32C644.64,217.56 658.28,229.31 660.98,240.36C662,244.54 661.29,248.16 658.76,251.75C656.86,254.44 654.52,255.92 651.41,256.4C634.71,258.95 603.12,235.06 577.76,215.84C572.52,211.87 567.43,208.01 562.6,204.47C558.87,201.72 555.35,199.22 552.17,197.07C551.94,196.91 551.7,196.78 551.47,196.62C551.76,195.2 551.92,193.73 551.92,192.22C551.92,179.98 541.87,170.02 529.53,170.02C522.32,170.02 515.92,173.43 511.82,178.69C476.95,169.41 446,177.21 426.25,200.55C412.77,216.44 412.27,232.98 424.87,244.79ZM521.77,192.22C521.77,188 525.24,184.56 529.5,184.56C533.76,184.56 537.23,188 537.23,192.22C537.23,196.44 533.76,199.88 529.5,199.88C525.23,199.88 521.77,196.44 521.77,192.22Z" style="fill:white;fill-rule:nonzero;"/>
            <path d="M657.62,175.04C638.11,158.87 614.89,166.03 579.97,198.97C578.55,200.31 576.73,200.97 574.92,200.97C572.98,200.97 571.05,200.21 569.61,198.71C566.82,195.8 566.93,191.2 569.87,188.43C597.47,162.38 633.46,136.05 667.03,163.87C670.14,166.44 670.55,171.03 667.95,174.11C665.35,177.2 660.73,177.61 657.62,175.04Z" style="fill:white;fill-rule:nonzero;"/>
        </g>
    </g>
</svg>
