<?xml version="1.0" encoding="UTF-8" standalone="no"?>
<!DOCTYPE svg PUBLIC "-//W3C//DTD SVG 1.1//EN" "http://www.w3.org/Graphics/SVG/1.1/DTD/svg11.dtd">
<svg width="100%" height="100%" viewBox="0 0 117 55" version="1.1" xmlns="http://www.w3.org/2000/svg" xmlns:xlink="http://www.w3.org/1999/xlink" xml:space="preserve" xmlns:serif="http://www.serif.com/" style="fill-rule:evenodd;clip-rule:evenodd;stroke-linejoin:round;stroke-miterlimit:2;">
    <g transform="matrix(0.334239,0,0,0.334239,58.5,19.4916)">
        <g transform="matrix(1,0,0,1,-75,-43.328)">
            <clipPath id="_clip1">
                <rect x="0" y="0" width="150" height="86.656"/>
            </clipPath>
            <g clip-path="url(#_clip1)">
                <path id="XMLID_4_" d="M107.188,0L0,0L0,13.071C0,54.904 5.821,86.656 42.838,86.656L150.026,86.656L150.026,73.585C150,31.752 144.179,0 107.188,0ZM139.999,76.654L59.931,76.654L59.931,43.341L53.316,43.341L53.316,76.654L42.812,76.654C14.447,76.654 10.002,49.215 10.002,13.071L10.002,10.002L107.188,10.002C135.553,10.002 139.999,37.441 139.999,73.585L139.999,76.654Z" style="fill:white;fill-rule:nonzero;"/>
            </g>
        </g>
    </g>
    <g transform="matrix(1,0,0,1,-1.4606,3.33911)">
        <g transform="matrix(12,0,0,12,17.7086,47.2979)">
            <path d="M0.646,-0.693C0.621,-0.62 0.596,-0.552 0.574,-0.49C0.551,-0.427 0.528,-0.368 0.506,-0.312C0.484,-0.256 0.462,-0.203 0.441,-0.152C0.419,-0.1 0.397,-0.05 0.374,-0L0.283,-0C0.26,-0.05 0.238,-0.1 0.217,-0.152C0.195,-0.203 0.173,-0.256 0.151,-0.312C0.128,-0.368 0.105,-0.427 0.082,-0.49C0.059,-0.552 0.035,-0.62 0.01,-0.693L0.117,-0.693C0.153,-0.588 0.188,-0.486 0.223,-0.389C0.258,-0.292 0.293,-0.2 0.33,-0.115C0.367,-0.2 0.402,-0.291 0.437,-0.389C0.472,-0.486 0.507,-0.588 0.542,-0.693L0.646,-0.693Z" style="fill:white;fill-rule:nonzero;"/>
        </g>
        <g transform="matrix(12,0,0,12,24.8366,47.2979)">
            <path d="M0.549,-0C0.538,-0.03 0.527,-0.059 0.517,-0.089C0.507,-0.118 0.497,-0.147 0.486,-0.177L0.172,-0.177L0.109,-0L0.008,-0C0.035,-0.073 0.06,-0.141 0.083,-0.204C0.106,-0.266 0.129,-0.325 0.152,-0.381C0.174,-0.437 0.196,-0.491 0.218,-0.542C0.24,-0.592 0.263,-0.643 0.287,-0.693L0.376,-0.693C0.4,-0.643 0.423,-0.592 0.445,-0.542C0.467,-0.491 0.489,-0.437 0.512,-0.381C0.534,-0.325 0.557,-0.266 0.58,-0.204C0.603,-0.141 0.628,-0.073 0.655,-0L0.549,-0ZM0.458,-0.257C0.437,-0.315 0.416,-0.371 0.395,-0.426C0.374,-0.48 0.352,-0.532 0.329,-0.582C0.306,-0.532 0.284,-0.48 0.263,-0.426C0.242,-0.371 0.221,-0.315 0.2,-0.257L0.458,-0.257ZM0.457,-0.873L0.316,-0.736L0.269,-0.778L0.397,-0.932L0.457,-0.873Z" style="fill:white;fill-rule:nonzero;"/>
        </g>
        <g transform="matrix(12,0,0,12,32.5646,47.2979)">
            <path d="M0.384,0.015C0.335,0.015 0.291,0.007 0.251,-0.009C0.211,-0.025 0.177,-0.048 0.148,-0.079C0.119,-0.11 0.097,-0.148 0.082,-0.193C0.066,-0.238 0.058,-0.289 0.058,-0.347C0.058,-0.405 0.067,-0.456 0.085,-0.502C0.102,-0.547 0.126,-0.584 0.156,-0.615C0.186,-0.646 0.221,-0.669 0.261,-0.685C0.301,-0.701 0.344,-0.709 0.389,-0.709C0.418,-0.709 0.444,-0.707 0.467,-0.703C0.49,-0.699 0.509,-0.694 0.527,-0.689C0.544,-0.684 0.557,-0.678 0.568,-0.673C0.579,-0.668 0.586,-0.664 0.59,-0.661L0.562,-0.581C0.556,-0.585 0.547,-0.589 0.536,-0.594C0.525,-0.599 0.512,-0.603 0.498,-0.608C0.483,-0.613 0.468,-0.616 0.451,-0.62C0.434,-0.623 0.416,-0.624 0.399,-0.624C0.362,-0.624 0.329,-0.618 0.3,-0.605C0.271,-0.592 0.246,-0.574 0.225,-0.55C0.204,-0.526 0.189,-0.497 0.178,-0.463C0.167,-0.428 0.161,-0.39 0.161,-0.347C0.161,-0.306 0.166,-0.268 0.176,-0.234C0.185,-0.2 0.2,-0.171 0.219,-0.147C0.238,-0.122 0.263,-0.103 0.292,-0.09C0.321,-0.077 0.354,-0.07 0.393,-0.07C0.438,-0.07 0.475,-0.075 0.504,-0.084C0.533,-0.093 0.555,-0.102 0.57,-0.109L0.595,-0.029C0.59,-0.026 0.582,-0.022 0.57,-0.017C0.558,-0.012 0.543,-0.007 0.525,-0.002C0.507,0.003 0.486,0.007 0.462,0.01C0.438,0.013 0.412,0.015 0.384,0.015Z" style="fill:white;fill-rule:nonzero;"/>
        </g>
        <g transform="matrix(12,0,0,12,40.0046,47.2979)">
            <path d="M0.503,-0.084L0.503,-0L0.086,-0L0.086,-0.693L0.183,-0.693L0.183,-0.084L0.503,-0.084Z" style="fill:white;fill-rule:nonzero;"/>
        </g>
        <g transform="matrix(12,0,0,12,46.5686,47.2979)">
            <path d="M0.549,-0C0.538,-0.03 0.527,-0.059 0.517,-0.089C0.507,-0.118 0.497,-0.147 0.486,-0.177L0.172,-0.177L0.109,-0L0.008,-0C0.035,-0.073 0.06,-0.141 0.083,-0.204C0.106,-0.266 0.129,-0.325 0.152,-0.381C0.174,-0.437 0.196,-0.491 0.218,-0.542C0.24,-0.592 0.263,-0.643 0.287,-0.693L0.376,-0.693C0.4,-0.643 0.423,-0.592 0.445,-0.542C0.467,-0.491 0.489,-0.437 0.512,-0.381C0.534,-0.325 0.557,-0.266 0.58,-0.204C0.603,-0.141 0.628,-0.073 0.655,-0L0.549,-0ZM0.458,-0.257C0.437,-0.315 0.416,-0.371 0.395,-0.426C0.374,-0.48 0.352,-0.532 0.329,-0.582C0.306,-0.532 0.284,-0.48 0.263,-0.426C0.242,-0.371 0.221,-0.315 0.2,-0.257L0.458,-0.257Z" style="fill:white;fill-rule:nonzero;"/>
        </g>
        <g transform="matrix(12,0,0,12,53.7806,47.2979)">
            <path d="M0.646,-0.693C0.621,-0.62 0.596,-0.552 0.574,-0.49C0.551,-0.427 0.528,-0.368 0.506,-0.312C0.484,-0.256 0.462,-0.203 0.441,-0.152C0.419,-0.1 0.397,-0.05 0.374,-0L0.283,-0C0.26,-0.05 0.238,-0.1 0.217,-0.152C0.195,-0.203 0.173,-0.256 0.151,-0.312C0.128,-0.368 0.105,-0.427 0.082,-0.49C0.059,-0.552 0.035,-0.62 0.01,-0.693L0.117,-0.693C0.153,-0.588 0.188,-0.486 0.223,-0.389C0.258,-0.292 0.293,-0.2 0.33,-0.115C0.367,-0.2 0.402,-0.291 0.437,-0.389C0.472,-0.486 0.507,-0.588 0.542,-0.693L0.646,-0.693Z" style="fill:white;fill-rule:nonzero;"/>
        </g>
        <g transform="matrix(12,0,0,12,64.4246,47.2979)">
            <path d="M0.086,-0L0.086,-0.693L0.504,-0.693L0.504,-0.61L0.183,-0.61L0.183,-0.401L0.468,-0.401L0.468,-0.319L0.183,-0.319L0.183,-0L0.086,-0Z" style="fill:white;fill-rule:nonzero;"/>
        </g>
        <g transform="matrix(12,0,0,12,70.8686,47.2979)">
            <path d="M0.503,-0.084L0.503,-0L0.086,-0L0.086,-0.693L0.183,-0.693L0.183,-0.084L0.503,-0.084Z" style="fill:white;fill-rule:nonzero;"/>
        </g>
        <g transform="matrix(12,0,0,12,77.0966,47.2979)">
            <path d="M0.086,-0.693L0.183,-0.693L0.183,-0L0.086,-0L0.086,-0.693ZM0.256,-0.873L0.115,-0.736L0.068,-0.778L0.196,-0.932L0.256,-0.873Z" style="fill:white;fill-rule:nonzero;"/>
        </g>
        <g transform="matrix(12,0,0,12,80.3246,47.2979)">
            <path d="M0.384,0.015C0.335,0.015 0.291,0.007 0.251,-0.009C0.211,-0.025 0.177,-0.048 0.148,-0.079C0.119,-0.11 0.097,-0.148 0.082,-0.193C0.066,-0.238 0.058,-0.289 0.058,-0.347C0.058,-0.405 0.067,-0.456 0.085,-0.502C0.102,-0.547 0.126,-0.584 0.156,-0.615C0.186,-0.646 0.221,-0.669 0.261,-0.685C0.301,-0.701 0.344,-0.709 0.389,-0.709C0.418,-0.709 0.444,-0.707 0.467,-0.703C0.49,-0.699 0.509,-0.694 0.527,-0.689C0.544,-0.684 0.557,-0.678 0.568,-0.673C0.579,-0.668 0.586,-0.664 0.59,-0.661L0.562,-0.581C0.556,-0.585 0.547,-0.589 0.536,-0.594C0.525,-0.599 0.512,-0.603 0.498,-0.608C0.483,-0.613 0.468,-0.616 0.451,-0.62C0.434,-0.623 0.416,-0.624 0.399,-0.624C0.362,-0.624 0.329,-0.618 0.3,-0.605C0.271,-0.592 0.246,-0.574 0.225,-0.55C0.204,-0.526 0.189,-0.497 0.178,-0.463C0.167,-0.428 0.161,-0.39 0.161,-0.347C0.161,-0.306 0.166,-0.268 0.176,-0.234C0.185,-0.2 0.2,-0.171 0.219,-0.147C0.238,-0.122 0.263,-0.103 0.292,-0.09C0.321,-0.077 0.354,-0.07 0.393,-0.07C0.438,-0.07 0.475,-0.075 0.504,-0.084C0.533,-0.093 0.555,-0.102 0.57,-0.109L0.595,-0.029C0.59,-0.026 0.582,-0.022 0.57,-0.017C0.558,-0.012 0.543,-0.007 0.525,-0.002C0.507,0.003 0.486,0.007 0.462,0.01C0.438,0.013 0.412,0.015 0.384,0.015ZM0.231,-0.885L0.27,-0.929L0.367,-0.841L0.464,-0.929L0.503,-0.885L0.367,-0.742L0.231,-0.885Z" style="fill:white;fill-rule:nonzero;"/>
        </g>
        <g transform="matrix(12,0,0,12,87.7646,47.2979)">
            <path d="M0.086,-0L0.086,-0.693L0.509,-0.693L0.509,-0.61L0.183,-0.61L0.183,-0.404L0.473,-0.404L0.473,-0.323L0.183,-0.323L0.183,-0.083L0.534,-0.083L0.534,-0L0.086,-0Z" style="fill:white;fill-rule:nonzero;"/>
        </g>
        <g transform="matrix(12,0,0,12,94.6166,47.2979)">
            <path d="M0.599,-0.693C0.578,-0.67 0.555,-0.645 0.529,-0.618C0.503,-0.59 0.476,-0.562 0.448,-0.533C0.419,-0.503 0.391,-0.475 0.363,-0.447C0.335,-0.419 0.309,-0.393 0.284,-0.369C0.313,-0.349 0.343,-0.324 0.375,-0.295C0.407,-0.266 0.438,-0.234 0.469,-0.201C0.5,-0.168 0.529,-0.134 0.556,-0.099C0.583,-0.064 0.605,-0.031 0.623,-0L0.509,-0C0.489,-0.031 0.466,-0.063 0.44,-0.095C0.414,-0.126 0.387,-0.157 0.358,-0.186C0.329,-0.215 0.299,-0.241 0.27,-0.266C0.24,-0.291 0.211,-0.312 0.183,-0.329L0.183,-0L0.086,-0L0.086,-0.693L0.183,-0.693L0.183,-0.387C0.206,-0.409 0.232,-0.434 0.26,-0.462C0.288,-0.489 0.316,-0.517 0.343,-0.545C0.37,-0.573 0.396,-0.6 0.421,-0.626C0.445,-0.651 0.465,-0.674 0.482,-0.693L0.599,-0.693Z" style="fill:white;fill-rule:nonzero;"/>
        </g>
    </g>
</svg>
