<?xml version="1.0" encoding="UTF-8" standalone="no"?>
<!DOCTYPE svg PUBLIC "-//W3C//DTD SVG 1.1//EN" "http://www.w3.org/Graphics/SVG/1.1/DTD/svg11.dtd">
<svg width="100%" height="100%" viewBox="0 0 117 55" version="1.1" xmlns="http://www.w3.org/2000/svg" xmlns:xlink="http://www.w3.org/1999/xlink" xml:space="preserve" xmlns:serif="http://www.serif.com/" style="fill-rule:evenodd;clip-rule:evenodd;stroke-linejoin:round;stroke-miterlimit:2;">
    <g transform="matrix(1.23097,0,0,1.23097,-6.12491,-7.95219)">
        <g transform="matrix(8.6968,0,0,8.6968,25.9875,47.1976)">
            <path d="M0.646,-0.693C0.621,-0.62 0.596,-0.552 0.574,-0.49C0.551,-0.427 0.528,-0.368 0.506,-0.312C0.484,-0.256 0.462,-0.203 0.441,-0.152C0.419,-0.1 0.397,-0.05 0.374,-0L0.283,-0C0.26,-0.05 0.238,-0.1 0.217,-0.152C0.195,-0.203 0.173,-0.256 0.151,-0.312C0.128,-0.368 0.105,-0.427 0.082,-0.49C0.059,-0.552 0.035,-0.62 0.01,-0.693L0.117,-0.693C0.153,-0.588 0.188,-0.486 0.223,-0.389C0.258,-0.292 0.293,-0.2 0.33,-0.115C0.367,-0.2 0.402,-0.291 0.437,-0.389C0.472,-0.486 0.507,-0.588 0.542,-0.693L0.646,-0.693Z" style="fill:white;fill-rule:nonzero;"/>
        </g>
        <g transform="matrix(8.6968,0,0,8.6968,31.6926,47.1976)">
            <path d="M0.247,-0.069C0.348,-0.069 0.399,-0.104 0.399,-0.173C0.399,-0.194 0.395,-0.213 0.386,-0.228C0.377,-0.243 0.364,-0.256 0.349,-0.267C0.334,-0.278 0.316,-0.287 0.297,-0.295C0.277,-0.303 0.256,-0.311 0.234,-0.319C0.209,-0.328 0.185,-0.338 0.162,-0.349C0.139,-0.36 0.12,-0.373 0.103,-0.388C0.086,-0.403 0.073,-0.42 0.064,-0.441C0.054,-0.462 0.049,-0.487 0.049,-0.516C0.049,-0.577 0.07,-0.624 0.111,-0.658C0.152,-0.692 0.209,-0.709 0.282,-0.709C0.324,-0.709 0.362,-0.705 0.397,-0.696C0.431,-0.687 0.456,-0.677 0.472,-0.666L0.441,-0.587C0.427,-0.596 0.406,-0.604 0.379,-0.613C0.351,-0.621 0.319,-0.625 0.282,-0.625C0.263,-0.625 0.246,-0.623 0.23,-0.619C0.214,-0.615 0.2,-0.609 0.188,-0.601C0.176,-0.593 0.167,-0.583 0.16,-0.571C0.153,-0.558 0.149,-0.544 0.149,-0.527C0.149,-0.508 0.153,-0.493 0.16,-0.48C0.167,-0.467 0.178,-0.456 0.191,-0.447C0.204,-0.437 0.22,-0.428 0.238,-0.42C0.255,-0.412 0.275,-0.404 0.296,-0.396C0.326,-0.384 0.354,-0.372 0.379,-0.36C0.404,-0.348 0.425,-0.334 0.444,-0.317C0.462,-0.3 0.476,-0.28 0.486,-0.258C0.496,-0.235 0.501,-0.207 0.501,-0.174C0.501,-0.113 0.479,-0.067 0.435,-0.034C0.39,-0.001 0.328,0.015 0.247,0.015C0.22,0.015 0.195,0.013 0.172,0.01C0.149,0.006 0.128,0.002 0.11,-0.004C0.092,-0.008 0.077,-0.014 0.064,-0.02C0.05,-0.025 0.04,-0.03 0.033,-0.034L0.062,-0.114C0.077,-0.105 0.101,-0.096 0.132,-0.085C0.163,-0.074 0.202,-0.069 0.247,-0.069Z" style="fill:white;fill-rule:nonzero;"/>
        </g>
        <g transform="matrix(8.6968,0,0,8.6968,38.3283,47.1976)">
            <path d="M0.397,-0.096C0.39,-0.112 0.382,-0.132 0.371,-0.157C0.36,-0.182 0.348,-0.208 0.335,-0.237C0.322,-0.266 0.309,-0.295 0.295,-0.326C0.28,-0.356 0.267,-0.385 0.254,-0.412C0.241,-0.439 0.23,-0.463 0.219,-0.484C0.208,-0.505 0.199,-0.522 0.192,-0.533C0.185,-0.454 0.179,-0.369 0.174,-0.278C0.169,-0.186 0.165,-0.093 0.162,-0L0.067,-0C0.07,-0.06 0.073,-0.121 0.076,-0.182C0.079,-0.243 0.083,-0.303 0.088,-0.362C0.092,-0.421 0.096,-0.478 0.102,-0.534C0.107,-0.59 0.112,-0.643 0.118,-0.693L0.203,-0.693C0.221,-0.664 0.24,-0.629 0.261,-0.589C0.282,-0.549 0.302,-0.507 0.323,-0.464C0.344,-0.42 0.364,-0.376 0.383,-0.333C0.402,-0.289 0.42,-0.249 0.436,-0.213C0.452,-0.249 0.47,-0.289 0.489,-0.333C0.508,-0.376 0.528,-0.42 0.549,-0.464C0.57,-0.507 0.59,-0.549 0.611,-0.589C0.632,-0.629 0.651,-0.664 0.669,-0.693L0.754,-0.693C0.777,-0.47 0.794,-0.239 0.805,-0L0.71,-0C0.707,-0.093 0.703,-0.186 0.698,-0.278C0.693,-0.369 0.687,-0.454 0.68,-0.533C0.673,-0.522 0.665,-0.505 0.654,-0.484C0.643,-0.463 0.631,-0.439 0.618,-0.412C0.605,-0.385 0.592,-0.356 0.578,-0.326C0.563,-0.295 0.55,-0.266 0.537,-0.237C0.524,-0.208 0.513,-0.182 0.502,-0.157C0.491,-0.132 0.482,-0.112 0.475,-0.096L0.397,-0.096Z" style="fill:white;fill-rule:nonzero;"/>
        </g>
        <g transform="matrix(8.6968,0,0,8.6968,45.9032,47.1976)">
            <path d="M0.058,-0.347C0.058,-0.406 0.067,-0.459 0.085,-0.504C0.102,-0.549 0.126,-0.587 0.157,-0.618C0.187,-0.648 0.222,-0.671 0.263,-0.686C0.303,-0.701 0.346,-0.709 0.391,-0.709C0.436,-0.709 0.478,-0.701 0.518,-0.686C0.557,-0.671 0.592,-0.648 0.622,-0.618C0.652,-0.587 0.676,-0.549 0.694,-0.504C0.711,-0.459 0.72,-0.406 0.72,-0.347C0.72,-0.288 0.711,-0.235 0.694,-0.19C0.676,-0.145 0.652,-0.107 0.622,-0.077C0.592,-0.046 0.557,-0.023 0.518,-0.008C0.478,0.007 0.436,0.015 0.391,0.015C0.346,0.015 0.303,0.007 0.263,-0.008C0.222,-0.023 0.187,-0.046 0.157,-0.077C0.126,-0.107 0.102,-0.145 0.085,-0.19C0.067,-0.235 0.058,-0.288 0.058,-0.347ZM0.16,-0.347C0.16,-0.305 0.165,-0.267 0.176,-0.233C0.187,-0.198 0.202,-0.169 0.222,-0.145C0.241,-0.121 0.265,-0.102 0.294,-0.09C0.322,-0.077 0.354,-0.07 0.389,-0.07C0.424,-0.07 0.456,-0.077 0.484,-0.09C0.512,-0.102 0.536,-0.121 0.556,-0.145C0.575,-0.169 0.59,-0.198 0.601,-0.233C0.612,-0.267 0.617,-0.305 0.617,-0.347C0.617,-0.389 0.612,-0.427 0.601,-0.462C0.59,-0.496 0.575,-0.525 0.556,-0.549C0.536,-0.573 0.512,-0.592 0.484,-0.605C0.456,-0.618 0.424,-0.624 0.389,-0.624C0.354,-0.624 0.322,-0.618 0.294,-0.605C0.265,-0.592 0.241,-0.573 0.222,-0.549C0.202,-0.525 0.187,-0.496 0.176,-0.462C0.165,-0.427 0.16,-0.389 0.16,-0.347Z" style="fill:white;fill-rule:nonzero;"/>
        </g>
        <g transform="matrix(8.6968,0,0,8.6968,52.6693,47.1976)">
            <path d="M0.561,-0C0.546,-0.025 0.53,-0.052 0.511,-0.083C0.492,-0.114 0.471,-0.146 0.449,-0.179C0.427,-0.212 0.404,-0.245 0.381,-0.279C0.357,-0.313 0.333,-0.346 0.31,-0.378C0.287,-0.409 0.264,-0.439 0.242,-0.467C0.22,-0.495 0.2,-0.52 0.181,-0.541L0.181,-0L0.086,-0L0.086,-0.693L0.163,-0.693C0.194,-0.66 0.228,-0.621 0.264,-0.577C0.299,-0.532 0.335,-0.487 0.37,-0.44C0.405,-0.393 0.438,-0.346 0.469,-0.301C0.5,-0.256 0.526,-0.215 0.547,-0.18L0.547,-0.693L0.642,-0.693L0.642,-0L0.561,-0Z" style="fill:white;fill-rule:nonzero;"/>
        </g>
        <g transform="matrix(8.6968,0,0,8.6968,59.0006,47.1976)">
            <path d="M0.549,-0.693L0.549,-0.609L0.331,-0.609L0.331,-0L0.234,-0L0.234,-0.609L0.016,-0.609L0.016,-0.693L0.549,-0.693Z" style="fill:white;fill-rule:nonzero;"/>
        </g>
        <g transform="matrix(8.6968,0,0,8.6968,63.3577,47.1976)">
            <path d="M0.549,-0C0.538,-0.03 0.527,-0.059 0.517,-0.089C0.507,-0.118 0.497,-0.147 0.486,-0.177L0.172,-0.177L0.109,-0L0.008,-0C0.035,-0.073 0.06,-0.141 0.083,-0.204C0.106,-0.266 0.129,-0.325 0.152,-0.381C0.174,-0.437 0.196,-0.491 0.218,-0.542C0.24,-0.592 0.263,-0.643 0.287,-0.693L0.376,-0.693C0.4,-0.643 0.423,-0.592 0.445,-0.542C0.467,-0.491 0.489,-0.437 0.512,-0.381C0.534,-0.325 0.557,-0.266 0.58,-0.204C0.603,-0.141 0.628,-0.073 0.655,-0L0.549,-0ZM0.458,-0.257C0.437,-0.315 0.416,-0.371 0.395,-0.426C0.374,-0.48 0.352,-0.532 0.329,-0.582C0.306,-0.532 0.284,-0.48 0.263,-0.426C0.242,-0.371 0.221,-0.315 0.2,-0.257L0.458,-0.257ZM0.457,-0.873L0.316,-0.736L0.269,-0.778L0.397,-0.932L0.457,-0.873Z" style="fill:white;fill-rule:nonzero;"/>
        </g>
        <g transform="matrix(8.6968,0,0,8.6968,69.2889,47.1976)">
            <path d="M0.526,-0.616C0.511,-0.599 0.493,-0.578 0.473,-0.554C0.452,-0.529 0.431,-0.502 0.408,-0.473C0.385,-0.443 0.362,-0.411 0.338,-0.379C0.314,-0.345 0.291,-0.312 0.268,-0.279C0.245,-0.245 0.223,-0.211 0.202,-0.178C0.181,-0.145 0.163,-0.113 0.146,-0.083L0.536,-0.083L0.536,-0L0.033,-0L0.033,-0.065C0.047,-0.092 0.064,-0.121 0.083,-0.153C0.101,-0.185 0.122,-0.218 0.144,-0.251C0.165,-0.284 0.188,-0.318 0.211,-0.352C0.234,-0.386 0.258,-0.419 0.281,-0.45C0.304,-0.481 0.326,-0.511 0.348,-0.538C0.369,-0.565 0.389,-0.589 0.407,-0.61L0.051,-0.61L0.051,-0.693L0.526,-0.693L0.526,-0.616ZM0.156,-0.885L0.195,-0.929L0.292,-0.841L0.389,-0.929L0.428,-0.885L0.292,-0.742L0.156,-0.885Z" style="fill:white;fill-rule:nonzero;"/>
        </g>
        <g transform="matrix(8.6968,0,0,8.6968,74.2722,47.1976)">
            <path d="M0.086,-0L0.086,-0.693L0.509,-0.693L0.509,-0.61L0.183,-0.61L0.183,-0.404L0.473,-0.404L0.473,-0.323L0.183,-0.323L0.183,-0.083L0.534,-0.083L0.534,-0L0.086,-0Z" style="fill:white;fill-rule:nonzero;"/>
        </g>
    </g>
    <g transform="matrix(0.785636,0,0,0.611621,12.5055,10.3228)">
        <rect x="32.665" y="34.313" width="52.256" height="3.614" style="fill:white;"/>
    </g>
    <g transform="matrix(0.492394,0,0,0.651296,29.7229,4.50031)">
        <rect x="32.665" y="34.313" width="52.256" height="3.614" style="fill:white;"/>
    </g>
    <g transform="matrix(1.58262e-17,-0.258461,0.651296,3.98804e-17,46.8588,39.7521)">
        <rect x="32.665" y="34.313" width="52.256" height="3.614" style="fill:white;"/>
    </g>
    <g transform="matrix(1.58262e-17,-0.258461,0.651296,3.98804e-17,23.482,39.7521)">
        <rect x="32.665" y="34.313" width="52.256" height="3.614" style="fill:white;"/>
    </g>
    <g transform="matrix(1.9241e-17,-0.314229,0.651296,3.98804e-17,19.0757,41.5737)">
        <rect x="32.665" y="34.313" width="52.256" height="3.614" style="fill:white;"/>
    </g>
    <g transform="matrix(1.9241e-17,-0.314229,0.651296,3.98804e-17,51.4284,41.5737)">
        <rect x="32.665" y="34.313" width="52.256" height="3.614" style="fill:white;"/>
    </g>
    <g transform="matrix(0.492394,0,0,0.656253,29.7229,-0.328876)">
        <rect x="32.665" y="34.313" width="52.256" height="3.614" style="fill:white;"/>
    </g>
    <g transform="matrix(0.492394,0,0,0.588921,29.746,-2.40442)">
        <rect x="32.665" y="34.313" width="52.256" height="3.614" style="fill:white;"/>
    </g>
    <g transform="matrix(0.38617,0.152386,-0.216171,0.547812,53.846,-16.4105)">
        <rect x="32.665" y="34.313" width="52.256" height="3.614" style="fill:white;"/>
    </g>
    <g transform="matrix(-0.406725,0.160497,0.216171,0.547812,64.8996,-16.6754)">
        <rect x="32.665" y="34.313" width="52.256" height="3.614" style="fill:white;"/>
    </g>
    <g transform="matrix(0.789469,0,0,0.789469,12.1857,4.02195)">
        <circle cx="58.913" cy="12.839" r="2.303" style="fill:white;"/>
    </g>
</svg>
